<svg xmlns="http://www.w3.org/2000/svg" viewBox="0 0 1320 900" width="1320" height="900">
  <style>
    text { font-family: 'SF Mono', 'Fira Code', 'Cascadia Code', 'Courier New', 'PingFang TC', 'Microsoft JhengHei', 'Microsoft YaHei', 'SimHei', monospace; fill: #e2e8f0; }
    .title { font-size: 22px; font-weight: 700; fill: #f1f5f9; }
    .layer-label { font-size: 13px; font-weight: 700; letter-spacing: 0.02em; }
    .node-title { font-size: 15px; font-weight: 700; }
    .node-sub { font-size: 11px; fill: #94a3b8; }
    .arrow-label { font-size: 11px; fill: #cbd5e1; }
    .legend-text { font-size: 12px; fill: #cbd5e1; }
  </style>
  <defs>
    <linearGradient id="bg-grad" x1="0%" y1="0%" x2="100%" y2="100%">
      <stop offset="0%" stop-color="#0f0f1a"/>
      <stop offset="100%" stop-color="#1a1a2e"/>
    </linearGradient>
    <marker id="arrow-blue" markerWidth="10" markerHeight="8" refX="9" refY="4" orient="auto">
      <polygon points="0 0, 10 4, 0 8" fill="#3b82f6"/>
    </marker>
    <marker id="arrow-orange" markerWidth="10" markerHeight="8" refX="9" refY="4" orient="auto">
      <polygon points="0 0, 10 4, 0 8" fill="#f97316"/>
    </marker>
    <marker id="arrow-green" markerWidth="10" markerHeight="8" refX="9" refY="4" orient="auto">
      <polygon points="0 0, 10 4, 0 8" fill="#10b981"/>
    </marker>
    <marker id="arrow-purple" markerWidth="10" markerHeight="8" refX="9" refY="4" orient="auto">
      <polygon points="0 0, 10 4, 0 8" fill="#a855f7"/>
    </marker>
    <marker id="arrow-yellow" markerWidth="10" markerHeight="8" refX="9" refY="4" orient="auto">
      <polygon points="0 0, 10 4, 0 8" fill="#eab308"/>
    </marker>
    <marker id="arrow-red" markerWidth="10" markerHeight="8" refX="9" refY="4" orient="auto">
      <polygon points="0 0, 10 4, 0 8" fill="#ef4444"/>
    </marker>
  </defs>
  <rect width="1320" height="900" fill="url(#bg-grad)"/>
  <text x="660" y="44" text-anchor="middle" class="title">Kubernetes Architecture: control plane &#8594; worker node</text>
  <rect x="40" y="80" width="1240" height="140" rx="8" ry="8" fill="#0f172a" stroke="#3b82f6" stroke-width="1.5" stroke-dasharray="6,4" opacity="0.95"/>
  <text x="56" y="102" class="layer-label" fill="#3b82f6">User / Client</text>
  <rect x="40" y="260" width="1240" height="200" rx="8" ry="8" fill="#0f172a" stroke="#f97316" stroke-width="1.5" stroke-dasharray="6,4" opacity="0.95"/>
  <text x="56" y="282" class="layer-label" fill="#f97316">Control Plane (static Pods in kube-system)</text>
  <rect x="40" y="510" width="1240" height="190" rx="8" ry="8" fill="#0f172a" stroke="#10b981" stroke-width="1.5" stroke-dasharray="6,4" opacity="0.95"/>
  <text x="56" y="532" class="layer-label" fill="#10b981">Worker Node x N  (kubelet runs on every node, including control plane)</text>
  <rect x="40" y="750" width="1240" height="130" rx="8" ry="8" fill="#0f172a" stroke="#a855f7" stroke-width="1.5" stroke-dasharray="6,4" opacity="0.95"/>
  <text x="56" y="772" class="layer-label" fill="#a855f7">Workload Pods (data plane)</text>
  <rect x="120" y="120" width="240" height="80" rx="6" ry="6" fill="#0b1220" stroke="#3b82f6" stroke-width="1.5"/>
  <text x="240.0" y="146" text-anchor="middle" class="node-title" fill="#3b82f6">kubectl / client-go</text>
  <text x="240.0" y="166" text-anchor="middle" class="node-sub">HTTPS REST + kubeconfig</text>
  <text x="240.0" y="180" text-anchor="middle" class="node-sub">watch / list / patch</text>
  <rect x="540" y="120" width="240" height="80" rx="6" ry="6" fill="#0b1220" stroke="#3b82f6" stroke-width="1.5"/>
  <text x="660.0" y="146" text-anchor="middle" class="node-title" fill="#3b82f6">Operator / Controller</text>
  <text x="660.0" y="166" text-anchor="middle" class="node-sub">External controllers,</text>
  <text x="660.0" y="180" text-anchor="middle" class="node-sub">CI/CD, Helm, GitOps</text>
  <rect x="960" y="120" width="240" height="80" rx="6" ry="6" fill="#0b1220" stroke="#3b82f6" stroke-width="1.5"/>
  <text x="1080.0" y="146" text-anchor="middle" class="node-title" fill="#3b82f6">Cloud Provider API</text>
  <text x="1080.0" y="166" text-anchor="middle" class="node-sub">LB / Volume / Node</text>
  <text x="1080.0" y="180" text-anchor="middle" class="node-sub">(via cloud-controller-manager)</text>
  <rect x="120" y="305" width="240" height="130" rx="6" ry="6" fill="#0b1220" stroke="#f97316" stroke-width="1.5"/>
  <text x="240.0" y="331" text-anchor="middle" class="node-title" fill="#f97316">kube-scheduler</text>
  <text x="240.0" y="351" text-anchor="middle" class="node-sub">watch unscheduled Pods</text>
  <text x="240.0" y="365" text-anchor="middle" class="node-sub">predicate + score</text>
  <text x="240.0" y="379" text-anchor="middle" class="node-sub">Bind &#8594; spec.nodeName</text>
  <rect x="420" y="295" width="280" height="150" rx="6" ry="6" fill="#1c1917" stroke="#f97316" stroke-width="1.5"/>
  <text x="560.0" y="321" text-anchor="middle" class="node-title" fill="#f97316">kube-apiserver</text>
  <text x="560.0" y="341" text-anchor="middle" class="node-sub">HTTPS REST front door</text>
  <text x="560.0" y="355" text-anchor="middle" class="node-sub">admission &#8594; validation &#8594; etcd</text>
  <text x="560.0" y="369" text-anchor="middle" class="node-sub">ONLY reader/writer of etcd</text>
  <rect x="760" y="305" width="280" height="130" rx="6" ry="6" fill="#0b1220" stroke="#f97316" stroke-width="1.5"/>
  <text x="900.0" y="331" text-anchor="middle" class="node-title" fill="#f97316">kube-controller-manager</text>
  <text x="900.0" y="351" text-anchor="middle" class="node-sub">~30 controllers as goroutines</text>
  <text x="900.0" y="365" text-anchor="middle" class="node-sub">Deployment / RS / Endpoint</text>
  <text x="900.0" y="379" text-anchor="middle" class="node-sub">reconcile loop</text>
  <rect x="1100" y="305" width="160" height="130" rx="6" ry="6" fill="#0a0a0a" stroke="#f97316" stroke-width="1.5"/>
  <text x="1180.0" y="331" text-anchor="middle" class="node-title" fill="#f97316">etcd</text>
  <text x="1180.0" y="351" text-anchor="middle" class="node-sub">Raft KV store</text>
  <text x="1180.0" y="365" text-anchor="middle" class="node-sub">cluster source</text>
  <text x="1180.0" y="379" text-anchor="middle" class="node-sub">of truth</text>
  <rect x="120" y="550" width="220" height="130" rx="6" ry="6" fill="#0b1220" stroke="#10b981" stroke-width="1.5"/>
  <text x="230.0" y="576" text-anchor="middle" class="node-title" fill="#10b981">kubelet</text>
  <text x="230.0" y="596" text-anchor="middle" class="node-sub">watch own Pod spec</text>
  <text x="230.0" y="610" text-anchor="middle" class="node-sub">CRI gRPC to runtime</text>
  <text x="230.0" y="624" text-anchor="middle" class="node-sub">report status to apiserver</text>
  <rect x="380" y="550" width="220" height="130" rx="6" ry="6" fill="#0b1220" stroke="#10b981" stroke-width="1.5"/>
  <text x="490.0" y="576" text-anchor="middle" class="node-title" fill="#10b981">container runtime</text>
  <text x="490.0" y="596" text-anchor="middle" class="node-sub">containerd / CRI-O</text>
  <text x="490.0" y="610" text-anchor="middle" class="node-sub">image pull, sandbox,</text>
  <text x="490.0" y="624" text-anchor="middle" class="node-sub">OCI container exec</text>
  <rect x="640" y="550" width="220" height="130" rx="6" ry="6" fill="#0b1220" stroke="#10b981" stroke-width="1.5"/>
  <text x="750.0" y="576" text-anchor="middle" class="node-title" fill="#10b981">CNI plugin</text>
  <text x="750.0" y="596" text-anchor="middle" class="node-sub">plumb Pod network</text>
  <text x="750.0" y="610" text-anchor="middle" class="node-sub">(Cilium / Multus /</text>
  <text x="750.0" y="624" text-anchor="middle" class="node-sub">calico / flannel)</text>
  <rect x="900" y="550" width="220" height="130" rx="6" ry="6" fill="#0b1220" stroke="#10b981" stroke-width="1.5"/>
  <text x="1010.0" y="576" text-anchor="middle" class="node-title" fill="#10b981">kube-proxy</text>
  <text x="1010.0" y="596" text-anchor="middle" class="node-sub">watch Service +</text>
  <text x="1010.0" y="610" text-anchor="middle" class="node-sub">EndpointSlice</text>
  <text x="1010.0" y="624" text-anchor="middle" class="node-sub">iptables / IPVS / nftables</text>
  <rect x="1160" y="550" width="110" height="130" rx="6" ry="6" fill="#0a0a0a" stroke="#475569" stroke-width="1.5"/>
  <text x="1215.0" y="576" text-anchor="middle" class="node-title" fill="#475569">OS</text>
  <text x="1215.0" y="596" text-anchor="middle" class="node-sub">Linux</text>
  <text x="1215.0" y="610" text-anchor="middle" class="node-sub">kernel +</text>
  <text x="1215.0" y="624" text-anchor="middle" class="node-sub">cgroup</text>
  <rect x="180" y="780" width="220" height="90" rx="6" ry="6" fill="#0b1220" stroke="#a855f7" stroke-width="1.5"/>
  <text x="290.0" y="806" text-anchor="middle" class="node-title" fill="#a855f7">Pod (app)</text>
  <text x="290.0" y="826" text-anchor="middle" class="node-sub">userspace container</text>
  <text x="290.0" y="840" text-anchor="middle" class="node-sub">with veth pair to CNI</text>
  <rect x="460" y="780" width="220" height="90" rx="6" ry="6" fill="#0b1220" stroke="#a855f7" stroke-width="1.5"/>
  <text x="570.0" y="806" text-anchor="middle" class="node-title" fill="#a855f7">Pod (system)</text>
  <text x="570.0" y="826" text-anchor="middle" class="node-sub">DaemonSet / static Pod</text>
  <text x="570.0" y="840" text-anchor="middle" class="node-sub">apiserver/etcd live here</text>
  <rect x="740" y="780" width="220" height="90" rx="6" ry="6" fill="#0b1220" stroke="#a855f7" stroke-width="1.5"/>
  <text x="850.0" y="806" text-anchor="middle" class="node-title" fill="#a855f7">Service ClusterIP</text>
  <text x="850.0" y="826" text-anchor="middle" class="node-sub">VIP routed by kube-proxy</text>
  <text x="850.0" y="840" text-anchor="middle" class="node-sub">rules to backend Pods</text>
  <rect x="1020" y="780" width="220" height="90" rx="6" ry="6" fill="#0b1220" stroke="#a855f7" stroke-width="1.5"/>
  <text x="1130.0" y="806" text-anchor="middle" class="node-title" fill="#a855f7">PV / CSI volume</text>
  <text x="1130.0" y="826" text-anchor="middle" class="node-sub">mounted by kubelet</text>
  <text x="1130.0" y="840" text-anchor="middle" class="node-sub">via CSI plugin</text>
  <line x1="240" y1="200" x2="460" y2="295" stroke="#3b82f6" stroke-width="1.6" marker-end="url(#arrow-blue)"/>
  <rect x="296.0" y="228" width="78" height="16" rx="3" fill="#0f172a" opacity="0.92"/>
  <text x="335" y="240" text-anchor="middle" class="arrow-label" fill="#cbd5e1">HTTPS REST</text>
  <line x1="660" y1="200" x2="560" y2="295" stroke="#3b82f6" stroke-width="1.6" marker-end="url(#arrow-blue)"/>
  <rect x="590.5" y="228" width="99" height="16" rx="3" fill="#0f172a" opacity="0.92"/>
  <text x="640" y="240" text-anchor="middle" class="arrow-label" fill="#cbd5e1">watch / patch</text>
  <line x1="1080" y1="200" x2="660" y2="295" stroke="#3b82f6" stroke-width="1.6" marker-end="url(#arrow-blue)" stroke-dasharray="6,4"/>
  <rect x="864.5" y="228" width="71" height="16" rx="3" fill="#0f172a" opacity="0.92"/>
  <text x="900" y="240" text-anchor="middle" class="arrow-label" fill="#cbd5e1">cloud API</text>
  <line x1="360" y1="370" x2="420" y2="370" stroke="#f97316" stroke-width="2.0" marker-end="url(#arrow-orange)"/>
  <rect x="372.0" y="351" width="36" height="16" rx="3" fill="#0f172a" opacity="0.92"/>
  <text x="390" y="363" text-anchor="middle" class="arrow-label" fill="#cbd5e1">Bind</text>
  <line x1="760" y1="360" x2="700" y2="360" stroke="#f97316" stroke-width="2.0" marker-end="url(#arrow-orange)"/>
  <rect x="712.0" y="342" width="36" height="16" rx="3" fill="#0f172a" opacity="0.92"/>
  <text x="730" y="354" text-anchor="middle" class="arrow-label" fill="#cbd5e1">CRUD</text>
  <line x1="700" y1="390" x2="760" y2="390" stroke="#f97316" stroke-width="2.0" marker-end="url(#arrow-orange)"/>
  <rect x="708.5" y="396" width="43" height="16" rx="3" fill="#0f172a" opacity="0.92"/>
  <text x="730" y="408" text-anchor="middle" class="arrow-label" fill="#cbd5e1">watch</text>
  <path d="M 690,310 L 690,275 L 1110,275 L 1110,305" fill="none" stroke="#eab308" stroke-width="2.4" marker-end="url(#arrow-yellow)"/>
  <rect x="854.0" y="256" width="92" height="16" rx="3" fill="#0f172a" opacity="0.92"/>
  <text x="900" y="268" text-anchor="middle" class="arrow-label" fill="#cbd5e1">list / watch</text>
  <path d="M 1110,420 L 1110,455 L 690,455 L 690,430" fill="none" stroke="#eab308" stroke-width="2.4" marker-end="url(#arrow-yellow)"/>
  <rect x="857.5" y="450" width="85" height="16" rx="3" fill="#0f172a" opacity="0.92"/>
  <text x="900" y="462" text-anchor="middle" class="arrow-label" fill="#cbd5e1">raft commit</text>
  <path d="M 470,445 L 470,490 L 220,490 L 220,550" fill="none" stroke="#10b981" stroke-width="1.8" marker-end="url(#arrow-green)"/>
  <rect x="282.0" y="470" width="106" height="16" rx="3" fill="#0f172a" opacity="0.92"/>
  <text x="335" y="482" text-anchor="middle" class="arrow-label" fill="#cbd5e1">watch own Pods</text>
  <path d="M 260,550 L 260,500 L 510,500 L 510,445" fill="none" stroke="#10b981" stroke-width="1.8" marker-end="url(#arrow-green)" stroke-dasharray="6,4"/>
  <rect x="610.5" y="482" width="99" height="16" rx="3" fill="#0f172a" opacity="0.92"/>
  <text x="660" y="494" text-anchor="middle" class="arrow-label" fill="#cbd5e1">status report</text>
  <line x1="340" y1="615" x2="380" y2="615" stroke="#10b981" stroke-width="2.2" marker-end="url(#arrow-green)"/>
  <rect x="345.5" y="596" width="29" height="16" rx="3" fill="#0f172a" opacity="0.92"/>
  <text x="360" y="608" text-anchor="middle" class="arrow-label" fill="#cbd5e1">CRI</text>
  <line x1="600" y1="615" x2="640" y2="615" stroke="#10b981" stroke-width="1.8" marker-end="url(#arrow-green)"/>
  <rect x="591.5" y="596" width="57" height="16" rx="3" fill="#0f172a" opacity="0.92"/>
  <text x="620" y="608" text-anchor="middle" class="arrow-label" fill="#cbd5e1">CNI ADD</text>
  <line x1="440" y1="680" x2="290" y2="780" stroke="#10b981" stroke-width="1.8" marker-end="url(#arrow-green)"/>
  <rect x="328.0" y="726" width="64" height="16" rx="3" fill="#0f172a" opacity="0.92"/>
  <text x="360" y="738" text-anchor="middle" class="arrow-label" fill="#cbd5e1">exec OCI</text>
  <path d="M 200,680 L 200,720 L 570,720 L 570,780" fill="none" stroke="#a855f7" stroke-width="1.8" marker-end="url(#arrow-purple)" stroke-dasharray="6,4"/>
  <rect x="289.5" y="702" width="141" height="16" rx="3" fill="#0f172a" opacity="0.92"/>
  <text x="360" y="714" text-anchor="middle" class="arrow-label" fill="#cbd5e1">static Pod manifest</text>
  <line x1="960" y1="680" x2="850" y2="780" stroke="#10b981" stroke-width="1.8" marker-end="url(#arrow-green)" stroke-dasharray="6,4"/>
  <rect x="843.5" y="726" width="113" height="16" rx="3" fill="#0f172a" opacity="0.92"/>
  <text x="900" y="738" text-anchor="middle" class="arrow-label" fill="#cbd5e1">iptables / IPVS</text>
  <path d="M 290,680 L 290,735 L 1130,735 L 1130,780" fill="none" stroke="#10b981" stroke-width="1.8" marker-end="url(#arrow-green)" stroke-dasharray="6,4"/>
  <rect x="674.5" y="717" width="71" height="16" rx="3" fill="#0f172a" opacity="0.92"/>
  <text x="710" y="729" text-anchor="middle" class="arrow-label" fill="#cbd5e1">CSI mount</text>
  <rect x="40" y="854" width="1240" height="28" rx="4" fill="#0f172a" stroke="#334155" opacity="0.95"/>
  <line x1="56" y1="868" x2="88" y2="868" stroke="#3b82f6" stroke-width="1.8" marker-end="url(#arrow-blue)"/>
  <text x="94" y="872" class="legend-text">external &#8594; apiserver</text>
  <line x1="306" y1="868" x2="338" y2="868" stroke="#f97316" stroke-width="1.8" marker-end="url(#arrow-orange)"/>
  <text x="344" y="872" class="legend-text">control plane internal</text>
  <line x1="556" y1="868" x2="588" y2="868" stroke="#eab308" stroke-width="1.8" marker-end="url(#arrow-yellow)"/>
  <text x="594" y="872" class="legend-text">apiserver &#8596; etcd</text>
  <line x1="806" y1="868" x2="838" y2="868" stroke="#10b981" stroke-width="1.8" marker-end="url(#arrow-green)"/>
  <text x="844" y="872" class="legend-text">node-local (CRI / CNI)</text>
  <line x1="1056" y1="868" x2="1088" y2="868" stroke="#a855f7" stroke-width="1.8" marker-end="url(#arrow-purple)"/>
  <text x="1094" y="872" class="legend-text">Pod lifecycle (dashed = bootstrap)</text>
  <text x="1270" y="886" text-anchor="end" class="node-sub">Source: kubernetes v1.36.0 cmd/{kube-apiserver, kube-scheduler, kube-controller-manager, kubelet, kube-proxy}</text>
</svg>