<svg xmlns="http://www.w3.org/2000/svg" viewBox="0 0 1700 1100" width="1700" height="1100">
  <style>
    text { font-family: 'SF Mono', 'Fira Code', 'Cascadia Code', 'Courier New', 'PingFang TC', 'Microsoft JhengHei', 'Microsoft YaHei', 'SimHei', monospace; fill: #e2e8f0; }
    .title { font-size: 22px; font-weight: 700; fill: #f1f5f9; }
    .subtitle { font-size: 13px; fill: #94a3b8; }
    .phase-label { font-size: 14px; font-weight: 700; letter-spacing: 0.04em; }
    .lane-label { font-size: 13px; font-weight: 700; }
    .lane-sub { font-size: 10px; fill: #64748b; }
    .event-title { font-size: 13px; font-weight: 700; }
    .event-sub { font-size: 10px; fill: #94a3b8; }
    .event-mono { font-size: 10px; fill: #cbd5e1; }
    .arrow-label { font-size: 10px; fill: #cbd5e1; }
    .step-num { font-size: 12px; font-weight: 700; fill: #fbbf24; }
    .legend-text { font-size: 12px; fill: #cbd5e1; }
  </style>
  <defs>
    <linearGradient id="bg-grad" x1="0%" y1="0%" x2="100%" y2="100%">
      <stop offset="0%" stop-color="#0f0f1a"/>
      <stop offset="100%" stop-color="#1a1a2e"/>
    </linearGradient>
    <marker id="arrow-blue" markerWidth="10" markerHeight="8" refX="9" refY="4" orient="auto">
      <polygon points="0 0, 10 4, 0 8" fill="#3b82f6"/>
    </marker>
    <marker id="arrow-cyan" markerWidth="10" markerHeight="8" refX="9" refY="4" orient="auto">
      <polygon points="0 0, 10 4, 0 8" fill="#06b6d4"/>
    </marker>
    <marker id="arrow-green" markerWidth="10" markerHeight="8" refX="9" refY="4" orient="auto">
      <polygon points="0 0, 10 4, 0 8" fill="#10b981"/>
    </marker>
    <marker id="arrow-orange" markerWidth="10" markerHeight="8" refX="9" refY="4" orient="auto">
      <polygon points="0 0, 10 4, 0 8" fill="#f97316"/>
    </marker>
    <marker id="arrow-yellow" markerWidth="10" markerHeight="8" refX="9" refY="4" orient="auto">
      <polygon points="0 0, 10 4, 0 8" fill="#eab308"/>
    </marker>
    <marker id="arrow-rose" markerWidth="10" markerHeight="8" refX="9" refY="4" orient="auto">
      <polygon points="0 0, 10 4, 0 8" fill="#f43f5e"/>
    </marker>
    <marker id="arrow-purple" markerWidth="10" markerHeight="8" refX="9" refY="4" orient="auto">
      <polygon points="0 0, 10 4, 0 8" fill="#a855f7"/>
    </marker>
  </defs>

  <rect width="1700" height="1100" fill="url(#bg-grad)"/>

  <text x="850" y="40" text-anchor="middle" class="title">Kubernetes CSI Volume Lifecycle: PVC &#8594; PV &#8594; VolumeAttachment &#8594; mount</text>
  <text x="850" y="62" text-anchor="middle" class="subtitle">9 swimlanes &#215; 5 phases (Provision &#8594; Bind &#8594; Attach &#8594; Stage &#8594; Publish); arrows = CSI gRPC + k8s API watches</text>

  <!-- Phase header band -->
  <rect x="240" y="80" width="288" height="36" rx="4" ry="4" fill="#0b1220" stroke="#3b82f6" stroke-width="1.4"/>
  <text x="384" y="103" text-anchor="middle" class="phase-label" fill="#3b82f6">1. Provision</text>
  <rect x="528" y="80" width="288" height="36" rx="4" ry="4" fill="#0b1220" stroke="#06b6d4" stroke-width="1.4"/>
  <text x="672" y="103" text-anchor="middle" class="phase-label" fill="#06b6d4">2. Bind</text>
  <rect x="816" y="80" width="288" height="36" rx="4" ry="4" fill="#0b1220" stroke="#eab308" stroke-width="1.4"/>
  <text x="960" y="103" text-anchor="middle" class="phase-label" fill="#eab308">3. Attach</text>
  <rect x="1104" y="80" width="288" height="36" rx="4" ry="4" fill="#0b1220" stroke="#f97316" stroke-width="1.4"/>
  <text x="1248" y="103" text-anchor="middle" class="phase-label" fill="#f97316">4. Stage</text>
  <rect x="1392" y="80" width="288" height="36" rx="4" ry="4" fill="#0b1220" stroke="#10b981" stroke-width="1.4"/>
  <text x="1536" y="103" text-anchor="middle" class="phase-label" fill="#10b981">5. Publish</text>

  <!-- Time axis arrow under phase headers -->
  <line x1="240" y1="128" x2="1680" y2="128" stroke="#475569" stroke-width="1.2" stroke-dasharray="3,3"/>
  <text x="1690" y="132" text-anchor="end" class="lane-sub">time &#8594;</text>

  <!-- Lane background bands (very subtle, dashed border so collision check ignores) -->
  <!-- Lane 1: User (kubectl) -->
  <rect x="20" y="140" width="1660" height="92" rx="4" ry="4" fill="#0f172a" stroke="#334155" stroke-width="1.0" stroke-dasharray="3,4" opacity="0.55"/>
  <rect x="20" y="140" width="220" height="92" rx="4" ry="4" fill="#1c1917" stroke="#3b82f6" stroke-width="1.4" stroke-dasharray="4,3"/>
  <text x="32" y="170" class="lane-label" fill="#3b82f6">User</text>
  <text x="32" y="188" class="lane-sub">kubectl</text>
  <text x="32" y="204" class="lane-sub">client-go</text>
  <text x="32" y="220" class="lane-sub">apply YAML</text>

  <!-- Lane 2: kube-apiserver -->
  <rect x="20" y="240" width="1660" height="92" rx="4" ry="4" fill="#0f172a" stroke="#334155" stroke-width="1.0" stroke-dasharray="3,4" opacity="0.55"/>
  <rect x="20" y="240" width="220" height="92" rx="4" ry="4" fill="#1c1917" stroke="#f97316" stroke-width="1.4" stroke-dasharray="4,3"/>
  <text x="32" y="270" class="lane-label" fill="#f97316">kube-apiserver</text>
  <text x="32" y="288" class="lane-sub">storage / watch</text>
  <text x="32" y="304" class="lane-sub">PVC, PV,</text>
  <text x="32" y="320" class="lane-sub">VolumeAttachment</text>

  <!-- Lane 3: external-provisioner -->
  <rect x="20" y="340" width="1660" height="92" rx="4" ry="4" fill="#0f172a" stroke="#334155" stroke-width="1.0" stroke-dasharray="3,4" opacity="0.55"/>
  <rect x="20" y="340" width="220" height="92" rx="4" ry="4" fill="#1c1917" stroke="#06b6d4" stroke-width="1.4" stroke-dasharray="4,3"/>
  <text x="32" y="370" class="lane-label" fill="#06b6d4">external-provisioner</text>
  <text x="32" y="388" class="lane-sub">sidecar (Deploy)</text>
  <text x="32" y="404" class="lane-sub">watch PVC,</text>
  <text x="32" y="420" class="lane-sub">create PV</text>

  <!-- Lane 4: external-attacher -->
  <rect x="20" y="440" width="1660" height="92" rx="4" ry="4" fill="#0f172a" stroke="#334155" stroke-width="1.0" stroke-dasharray="3,4" opacity="0.55"/>
  <rect x="20" y="440" width="220" height="92" rx="4" ry="4" fill="#1c1917" stroke="#eab308" stroke-width="1.4" stroke-dasharray="4,3"/>
  <text x="32" y="470" class="lane-label" fill="#eab308">external-attacher</text>
  <text x="32" y="488" class="lane-sub">sidecar (Deploy)</text>
  <text x="32" y="504" class="lane-sub">watch</text>
  <text x="32" y="520" class="lane-sub">VolumeAttachment</text>

  <!-- Lane 5: CSI controller container -->
  <rect x="20" y="540" width="1660" height="92" rx="4" ry="4" fill="#0f172a" stroke="#334155" stroke-width="1.0" stroke-dasharray="3,4" opacity="0.55"/>
  <rect x="20" y="540" width="220" height="92" rx="4" ry="4" fill="#1c1917" stroke="#a855f7" stroke-width="1.4" stroke-dasharray="4,3"/>
  <text x="32" y="570" class="lane-label" fill="#a855f7">CSI Controller</text>
  <text x="32" y="588" class="lane-sub">driver container</text>
  <text x="32" y="604" class="lane-sub">in same Pod as</text>
  <text x="32" y="620" class="lane-sub">provisioner/attacher</text>

  <!-- Lane 6: kubelet -->
  <rect x="20" y="640" width="1660" height="92" rx="4" ry="4" fill="#0f172a" stroke="#334155" stroke-width="1.0" stroke-dasharray="3,4" opacity="0.55"/>
  <rect x="20" y="640" width="220" height="92" rx="4" ry="4" fill="#1c1917" stroke="#10b981" stroke-width="1.4" stroke-dasharray="4,3"/>
  <text x="32" y="670" class="lane-label" fill="#10b981">kubelet</text>
  <text x="32" y="688" class="lane-sub">on target node</text>
  <text x="32" y="704" class="lane-sub">volume manager</text>
  <text x="32" y="720" class="lane-sub">reconciler</text>

  <!-- Lane 7: node-driver-registrar -->
  <rect x="20" y="740" width="1660" height="92" rx="4" ry="4" fill="#0f172a" stroke="#334155" stroke-width="1.0" stroke-dasharray="3,4" opacity="0.55"/>
  <rect x="20" y="740" width="220" height="92" rx="4" ry="4" fill="#1c1917" stroke="#f43f5e" stroke-width="1.4" stroke-dasharray="4,3"/>
  <text x="32" y="770" class="lane-label" fill="#f43f5e">node-driver-registrar</text>
  <text x="32" y="788" class="lane-sub">sidecar (DaemonSet)</text>
  <text x="32" y="804" class="lane-sub">register driver</text>
  <text x="32" y="820" class="lane-sub">to kubelet</text>

  <!-- Lane 8: CSI node container -->
  <rect x="20" y="840" width="1660" height="92" rx="4" ry="4" fill="#0f172a" stroke="#334155" stroke-width="1.0" stroke-dasharray="3,4" opacity="0.55"/>
  <rect x="20" y="840" width="220" height="92" rx="4" ry="4" fill="#1c1917" stroke="#a855f7" stroke-width="1.4" stroke-dasharray="4,3"/>
  <text x="32" y="870" class="lane-label" fill="#a855f7">CSI Node</text>
  <text x="32" y="888" class="lane-sub">driver container</text>
  <text x="32" y="904" class="lane-sub">privileged DS Pod</text>
  <text x="32" y="920" class="lane-sub">does mount(2)</text>

  <!-- Lane 9: storage backend -->
  <rect x="20" y="940" width="1660" height="80" rx="4" ry="4" fill="#0f172a" stroke="#334155" stroke-width="1.0" stroke-dasharray="3,4" opacity="0.55"/>
  <rect x="20" y="940" width="220" height="80" rx="4" ry="4" fill="#1c1917" stroke="#475569" stroke-width="1.4" stroke-dasharray="4,3"/>
  <text x="32" y="968" class="lane-label" fill="#94a3b8">storage backend</text>
  <text x="32" y="986" class="lane-sub">Ceph RBD / NFS /</text>
  <text x="32" y="1002" class="lane-sub">cloud disk / SAN</text>

  <!-- Phase column dividers -->
  <line x1="528" y1="140" x2="528" y2="1020" stroke="#1e293b" stroke-width="1.0" stroke-dasharray="2,4"/>
  <line x1="816" y1="140" x2="816" y2="1020" stroke="#1e293b" stroke-width="1.0" stroke-dasharray="2,4"/>
  <line x1="1104" y1="140" x2="1104" y2="1020" stroke="#1e293b" stroke-width="1.0" stroke-dasharray="2,4"/>
  <line x1="1392" y1="140" x2="1392" y2="1020" stroke="#1e293b" stroke-width="1.0" stroke-dasharray="2,4"/>

  <!-- ===== Phase 1: PROVISION column 240..528 ===== -->
  <!-- Event A: User creates PVC (lane 1) -->
  <rect x="260" y="156" width="240" height="60" rx="6" ry="6" fill="#0b1220" stroke="#3b82f6" stroke-width="1.4"/>
  <text x="380" y="178" text-anchor="middle" class="event-title" fill="#3b82f6">[1] kubectl apply pvc.yaml</text>
  <text x="380" y="196" text-anchor="middle" class="event-sub">PersistentVolumeClaim</text>
  <text x="380" y="210" text-anchor="middle" class="event-mono">storageClassName: csi-rbd</text>

  <!-- Event B: apiserver stores PVC (lane 2) -->
  <rect x="260" y="256" width="240" height="60" rx="6" ry="6" fill="#0b1220" stroke="#f97316" stroke-width="1.4"/>
  <text x="380" y="278" text-anchor="middle" class="event-title" fill="#f97316">[2] PVC persisted (Pending)</text>
  <text x="380" y="296" text-anchor="middle" class="event-sub">admission &#8594; etcd</text>
  <text x="380" y="310" text-anchor="middle" class="event-mono">phase: Pending</text>

  <!-- Event C: external-provisioner sees PVC (lane 3) -->
  <rect x="260" y="356" width="240" height="60" rx="6" ry="6" fill="#0b1220" stroke="#06b6d4" stroke-width="1.4"/>
  <text x="380" y="378" text-anchor="middle" class="event-title" fill="#06b6d4">[3] Provision()</text>
  <text x="380" y="396" text-anchor="middle" class="event-sub">match driver name,</text>
  <text x="380" y="410" text-anchor="middle" class="event-mono">build CreateVolumeRequest</text>

  <!-- Event D: CSI controller CreateVolume (lane 5) -->
  <rect x="260" y="556" width="240" height="60" rx="6" ry="6" fill="#0b1220" stroke="#a855f7" stroke-width="1.4"/>
  <text x="380" y="578" text-anchor="middle" class="event-title" fill="#a855f7">[4] CreateVolume RPC</text>
  <text x="380" y="596" text-anchor="middle" class="event-sub">controller gRPC handler</text>
  <text x="380" y="610" text-anchor="middle" class="event-mono">return volumeId, capacity</text>

  <!-- Event E: backend creates volume (lane 9) -->
  <rect x="260" y="952" width="240" height="56" rx="6" ry="6" fill="#0b1220" stroke="#475569" stroke-width="1.4"/>
  <text x="380" y="974" text-anchor="middle" class="event-title" fill="#94a3b8">[5] backend volume created</text>
  <text x="380" y="992" text-anchor="middle" class="event-sub">e.g. rbd create pool/img</text>

  <!-- Arrows for phase 1 -->
  <!-- A -> B: kubectl POST /pvc -->
  <line x1="380" y1="216" x2="380" y2="256" stroke="#3b82f6" stroke-width="1.8" marker-end="url(#arrow-blue)"/>
  <rect x="385" y="222" width="120" height="14" rx="2" fill="#0f172a" opacity="0.92"/>
  <text x="445" y="232" text-anchor="middle" class="arrow-label">POST /pvc</text>
  <!-- B -> C: watch event -->
  <line x1="380" y1="316" x2="380" y2="356" stroke="#f97316" stroke-width="1.8" marker-end="url(#arrow-orange)"/>
  <rect x="385" y="322" width="120" height="14" rx="2" fill="#0f172a" opacity="0.92"/>
  <text x="445" y="332" text-anchor="middle" class="arrow-label">watch ADDED</text>
  <!-- C -> D: gRPC inside Pod (sidecar to driver) -->
  <line x1="380" y1="416" x2="380" y2="556" stroke="#a855f7" stroke-width="1.8" marker-end="url(#arrow-purple)"/>
  <rect x="385" y="478" width="130" height="14" rx="2" fill="#0f172a" opacity="0.92"/>
  <text x="450" y="488" text-anchor="middle" class="arrow-label">gRPC csi.sock</text>
  <!-- D -> E: backend API -->
  <line x1="380" y1="616" x2="380" y2="952" stroke="#a855f7" stroke-width="1.8" marker-end="url(#arrow-purple)" stroke-dasharray="6,4"/>
  <rect x="385" y="780" width="120" height="14" rx="2" fill="#0f172a" opacity="0.92"/>
  <text x="445" y="790" text-anchor="middle" class="arrow-label">backend API</text>

  <!-- ===== Phase 2: BIND column 528..816 ===== -->
  <!-- Event F: provisioner creates PV (lane 3) -->
  <rect x="548" y="356" width="240" height="60" rx="6" ry="6" fill="#0b1220" stroke="#06b6d4" stroke-width="1.4"/>
  <text x="668" y="378" text-anchor="middle" class="event-title" fill="#06b6d4">[6] create PV object</text>
  <text x="668" y="396" text-anchor="middle" class="event-sub">spec.csi.volumeHandle =</text>
  <text x="668" y="410" text-anchor="middle" class="event-mono">CreateVolumeResponse.id</text>

  <!-- Event G: apiserver stores PV, PV controller binds (lane 2) -->
  <rect x="548" y="246" width="240" height="80" rx="6" ry="6" fill="#0b1220" stroke="#f97316" stroke-width="1.4"/>
  <text x="668" y="268" text-anchor="middle" class="event-title" fill="#f97316">[7] PV created &#8594; bind</text>
  <text x="668" y="286" text-anchor="middle" class="event-sub">PV controller matches</text>
  <text x="668" y="300" text-anchor="middle" class="event-sub">PVC &#8596; PV by class/size</text>
  <text x="668" y="316" text-anchor="middle" class="event-mono">claimRef set, phase: Bound</text>

  <!-- Event H: User Pod scheduled to target node — at top lane -->
  <rect x="548" y="156" width="240" height="60" rx="6" ry="6" fill="#0b1220" stroke="#3b82f6" stroke-width="1.4"/>
  <text x="668" y="178" text-anchor="middle" class="event-title" fill="#3b82f6">[8] Pod with PVC scheduled</text>
  <text x="668" y="196" text-anchor="middle" class="event-sub">scheduler binds Pod</text>
  <text x="668" y="210" text-anchor="middle" class="event-mono">spec.nodeName : nodeX</text>

  <!-- Arrows phase 2 -->
  <!-- F -> G (provisioner POST PV) -->
  <line x1="668" y1="356" x2="668" y2="326" stroke="#06b6d4" stroke-width="1.8" marker-end="url(#arrow-cyan)"/>
  <rect x="673" y="332" width="100" height="14" rx="2" fill="#0f172a" opacity="0.92"/>
  <text x="723" y="342" text-anchor="middle" class="arrow-label">POST /pv</text>
  <!-- G -> H (Pod referencing the now-bound PVC, scheduler picks node) -->
  <line x1="668" y1="246" x2="668" y2="216" stroke="#f97316" stroke-width="1.8" marker-end="url(#arrow-orange)"/>
  <rect x="673" y="222" width="120" height="14" rx="2" fill="#0f172a" opacity="0.92"/>
  <text x="733" y="232" text-anchor="middle" class="arrow-label">Bound &#8594; schedule</text>

  <!-- ===== Phase 3: ATTACH column 816..1104 ===== -->
  <!-- Event I: kubelet attach/detach controller creates VolumeAttachment (shown in lane 2 since apiserver is the writer) -->
  <rect x="836" y="246" width="240" height="80" rx="6" ry="6" fill="#0b1220" stroke="#f97316" stroke-width="1.4"/>
  <text x="956" y="268" text-anchor="middle" class="event-title" fill="#f97316">[9] VolumeAttachment created</text>
  <text x="956" y="286" text-anchor="middle" class="event-sub">a/d controller (kcm) writes</text>
  <text x="956" y="300" text-anchor="middle" class="event-mono">spec.attacher : driver</text>
  <text x="956" y="316" text-anchor="middle" class="event-mono">spec.nodeName : nodeX</text>

  <!-- Event J: external-attacher sees VA (lane 4) -->
  <rect x="836" y="456" width="240" height="60" rx="6" ry="6" fill="#0b1220" stroke="#eab308" stroke-width="1.4"/>
  <text x="956" y="478" text-anchor="middle" class="event-title" fill="#eab308">[10] syncAttach()</text>
  <text x="956" y="496" text-anchor="middle" class="event-sub">build CSI request,</text>
  <text x="956" y="510" text-anchor="middle" class="event-mono">PublishContext = nil yet</text>

  <!-- Event K: CSI controller ControllerPublishVolume (lane 5) -->
  <rect x="836" y="556" width="240" height="60" rx="6" ry="6" fill="#0b1220" stroke="#a855f7" stroke-width="1.4"/>
  <text x="956" y="578" text-anchor="middle" class="event-title" fill="#a855f7">[11] ControllerPublishVolume</text>
  <text x="956" y="596" text-anchor="middle" class="event-sub">attach to node, return</text>
  <text x="956" y="610" text-anchor="middle" class="event-mono">PublishContext map</text>

  <!-- Event L: backend attaches volume to node (lane 9) -->
  <rect x="836" y="952" width="240" height="56" rx="6" ry="6" fill="#0b1220" stroke="#475569" stroke-width="1.4"/>
  <text x="956" y="974" text-anchor="middle" class="event-title" fill="#94a3b8">[12] disk attached to nodeX</text>
  <text x="956" y="992" text-anchor="middle" class="event-sub">cloud disk / RBD map</text>

  <!-- Arrows phase 3 -->
  <!-- I -> J (watch VA) -->
  <line x1="956" y1="326" x2="956" y2="456" stroke="#f97316" stroke-width="1.8" marker-end="url(#arrow-orange)"/>
  <rect x="961" y="382" width="120" height="14" rx="2" fill="#0f172a" opacity="0.92"/>
  <text x="1021" y="392" text-anchor="middle" class="arrow-label">watch VA</text>
  <!-- J -> K (gRPC ControllerPublishVolume) -->
  <line x1="956" y1="516" x2="956" y2="556" stroke="#a855f7" stroke-width="1.8" marker-end="url(#arrow-purple)"/>
  <rect x="961" y="522" width="120" height="14" rx="2" fill="#0f172a" opacity="0.92"/>
  <text x="1021" y="532" text-anchor="middle" class="arrow-label">CSI gRPC</text>
  <!-- K -> L (backend) -->
  <line x1="956" y1="616" x2="956" y2="952" stroke="#a855f7" stroke-width="1.8" marker-end="url(#arrow-purple)" stroke-dasharray="6,4"/>
  <rect x="961" y="780" width="120" height="14" rx="2" fill="#0f172a" opacity="0.92"/>
  <text x="1021" y="790" text-anchor="middle" class="arrow-label">backend attach</text>
  <!-- attacher write status back: J -> I (status) -->
  <path d="M 906,456 L 906,406 L 1006,406 L 1006,326" fill="none" stroke="#eab308" stroke-width="1.6" marker-end="url(#arrow-yellow)" stroke-dasharray="4,3"/>
  <rect x="846" y="412" width="160" height="14" rx="2" fill="#0f172a" opacity="0.92"/>
  <text x="926" y="422" text-anchor="middle" class="arrow-label">PATCH status.attached true</text>

  <!-- ===== Phase 4: STAGE column 1104..1392 ===== -->
  <!-- Event M: kubelet reconciler MountVolume (lane 6) -->
  <rect x="1124" y="656" width="240" height="60" rx="6" ry="6" fill="#0b1220" stroke="#10b981" stroke-width="1.4"/>
  <text x="1244" y="678" text-anchor="middle" class="event-title" fill="#10b981">[13] reconciler MountVolume</text>
  <text x="1244" y="696" text-anchor="middle" class="event-sub">WaitForAttach &#8594; ok</text>
  <text x="1244" y="710" text-anchor="middle" class="event-mono">MountDevice()</text>

  <!-- Event N: registrar (background, lane 7) - shown to indicate kubelet found driver -->
  <rect x="1124" y="756" width="240" height="60" rx="6" ry="6" fill="#0b1220" stroke="#f43f5e" stroke-width="1.4"/>
  <text x="1244" y="778" text-anchor="middle" class="event-title" fill="#f43f5e">[14] driver socket found</text>
  <text x="1244" y="796" text-anchor="middle" class="event-sub">via plugins_registry/</text>
  <text x="1244" y="810" text-anchor="middle" class="event-mono">CSINode object exists</text>

  <!-- Event O: CSI Node NodeStageVolume (lane 8) -->
  <rect x="1124" y="856" width="240" height="60" rx="6" ry="6" fill="#0b1220" stroke="#a855f7" stroke-width="1.4"/>
  <text x="1244" y="878" text-anchor="middle" class="event-title" fill="#a855f7">[15] NodeStageVolume</text>
  <text x="1244" y="896" text-anchor="middle" class="event-sub">format + mount &#8594; staging</text>
  <text x="1244" y="910" text-anchor="middle" class="event-mono">/var/lib/kubelet/plugins/&lt;drv&gt;/staging</text>

  <!-- Arrows phase 4 -->
  <!-- L -> M wait? Actually attach -> stage transition: kubelet polls VA — visualize K's PublishContext flowing to kubelet via apiserver -->
  <!-- M -> N: kubelet calls registrar gRPC over unix socket (registration was earlier) -->
  <line x1="1244" y1="716" x2="1244" y2="756" stroke="#10b981" stroke-width="1.8" marker-end="url(#arrow-green)" stroke-dasharray="4,3"/>
  <rect x="1249" y="722" width="160" height="14" rx="2" fill="#0f172a" opacity="0.92"/>
  <text x="1329" y="732" text-anchor="middle" class="arrow-label">lookup driver socket</text>
  <!-- N -> O: kubelet calls CSI Node gRPC (via socket discovered through registrar) -->
  <line x1="1244" y1="816" x2="1244" y2="856" stroke="#a855f7" stroke-width="1.8" marker-end="url(#arrow-purple)"/>
  <rect x="1249" y="822" width="160" height="14" rx="2" fill="#0f172a" opacity="0.92"/>
  <text x="1329" y="832" text-anchor="middle" class="arrow-label">CSI gRPC csi.sock</text>
  <!-- registrar registers earlier: lane 7 to lane 6 dashed loopback at start of column -->
  <path d="M 1144,756 L 1144,736 L 1144,716" fill="none" stroke="#f43f5e" stroke-width="1.4" marker-end="url(#arrow-rose)" stroke-dasharray="3,3"/>
  <rect x="1064" y="730" width="80" height="14" rx="2" fill="#0f172a" opacity="0.92"/>
  <text x="1104" y="740" text-anchor="middle" class="arrow-label">register</text>
  <!-- O to backend (mkfs / map): O bottom y 916, backend at 952 -->
  <line x1="1244" y1="916" x2="1244" y2="952" stroke="#a855f7" stroke-width="1.6" marker-end="url(#arrow-purple)" stroke-dasharray="4,3"/>
  <rect x="1249" y="922" width="100" height="14" rx="2" fill="#0f172a" opacity="0.92"/>
  <text x="1299" y="932" text-anchor="middle" class="arrow-label">mkfs / mount</text>

  <!-- carry-over: VolumeAttachment status echoes back to kubelet (apiserver -> kubelet) routed through gap between attacher and kubelet rects -->
  <path d="M 1090,326 L 1090,646 L 1124,646 L 1124,656" fill="none" stroke="#10b981" stroke-width="1.4" marker-end="url(#arrow-green)" stroke-dasharray="4,3"/>
  <rect x="1000" y="630" width="180" height="14" rx="2" fill="#0f172a" opacity="0.92"/>
  <text x="1090" y="640" text-anchor="middle" class="arrow-label">VA status: attached true</text>

  <!-- ===== Phase 5: PUBLISH column 1392..1680 ===== -->
  <!-- Event P: kubelet calls NodePublishVolume (lane 6) -->
  <rect x="1412" y="656" width="240" height="60" rx="6" ry="6" fill="#0b1220" stroke="#10b981" stroke-width="1.4"/>
  <text x="1532" y="678" text-anchor="middle" class="event-title" fill="#10b981">[16] SetUp() pod target path</text>
  <text x="1532" y="696" text-anchor="middle" class="event-sub">writes vol_data.json</text>
  <text x="1532" y="710" text-anchor="middle" class="event-mono">target = pods/&lt;uid&gt;/.../mount</text>

  <!-- Event Q: CSI Node NodePublishVolume (lane 8) -->
  <rect x="1412" y="856" width="240" height="60" rx="6" ry="6" fill="#0b1220" stroke="#a855f7" stroke-width="1.4"/>
  <text x="1532" y="878" text-anchor="middle" class="event-title" fill="#a855f7">[17] NodePublishVolume</text>
  <text x="1532" y="896" text-anchor="middle" class="event-sub">bind-mount staging &#8594; target</text>
  <text x="1532" y="910" text-anchor="middle" class="event-mono">propagation: Bidirectional</text>

  <!-- Event R: Pod sees volume (top lane 1) -->
  <rect x="1412" y="156" width="240" height="60" rx="6" ry="6" fill="#0b1220" stroke="#3b82f6" stroke-width="1.4"/>
  <text x="1532" y="178" text-anchor="middle" class="event-title" fill="#3b82f6">[18] container starts</text>
  <text x="1532" y="196" text-anchor="middle" class="event-sub">runtime mounts target into</text>
  <text x="1532" y="210" text-anchor="middle" class="event-mono">container mount namespace</text>

  <!-- Arrows phase 5 -->
  <!-- P -> Q: gRPC NodePublishVolume -->
  <line x1="1532" y1="716" x2="1532" y2="856" stroke="#a855f7" stroke-width="1.8" marker-end="url(#arrow-purple)"/>
  <rect x="1537" y="778" width="140" height="14" rx="2" fill="#0f172a" opacity="0.92"/>
  <text x="1607" y="788" text-anchor="middle" class="arrow-label">CSI gRPC</text>
  <!-- Q -> R: container runtime hands mount to Pod (route through gap between event rects and lane right edge) -->
  <path d="M 1665,856 L 1665,216 L 1652,216" fill="none" stroke="#3b82f6" stroke-width="1.6" marker-end="url(#arrow-blue)" stroke-dasharray="4,3"/>
  <rect x="1495" y="438" width="170" height="14" rx="2" fill="#0f172a" opacity="0.92"/>
  <text x="1580" y="448" text-anchor="middle" class="arrow-label">runtime mount &#8594; container</text>

  <!-- staging -> publish hop within node container (Q is at 856 already; show internal reference between staging and target) -->
  <path d="M 1364,886 L 1412,886" fill="none" stroke="#a855f7" stroke-width="1.4" marker-end="url(#arrow-purple)" stroke-dasharray="3,3"/>
  <rect x="1334" y="868" width="100" height="14" rx="2" fill="#0f172a" opacity="0.92"/>
  <text x="1384" y="878" text-anchor="middle" class="arrow-label">stage &#8594; publish</text>

  <!-- transition kubelet stage(M) -> kubelet publish(P) horizontal -->
  <path d="M 1364,686 L 1412,686" fill="none" stroke="#10b981" stroke-width="1.6" marker-end="url(#arrow-green)"/>
  <rect x="1334" y="668" width="100" height="14" rx="2" fill="#0f172a" opacity="0.92"/>
  <text x="1384" y="678" text-anchor="middle" class="arrow-label">SetUp()</text>

  <!-- Legend -->
  <rect x="20" y="1040" width="1660" height="48" rx="4" fill="#0f172a" stroke="#334155" opacity="0.95"/>
  <line x1="40" y1="1056" x2="72" y2="1056" stroke="#3b82f6" stroke-width="1.8" marker-end="url(#arrow-blue)"/>
  <text x="78" y="1060" class="legend-text">user / Pod path</text>
  <line x1="240" y1="1056" x2="272" y2="1056" stroke="#f97316" stroke-width="1.8" marker-end="url(#arrow-orange)"/>
  <text x="278" y="1060" class="legend-text">apiserver write / watch</text>
  <line x1="500" y1="1056" x2="532" y2="1056" stroke="#06b6d4" stroke-width="1.8" marker-end="url(#arrow-cyan)"/>
  <text x="538" y="1060" class="legend-text">external-provisioner</text>
  <line x1="740" y1="1056" x2="772" y2="1056" stroke="#eab308" stroke-width="1.8" marker-end="url(#arrow-yellow)"/>
  <text x="778" y="1060" class="legend-text">external-attacher</text>
  <line x1="970" y1="1056" x2="1002" y2="1056" stroke="#10b981" stroke-width="1.8" marker-end="url(#arrow-green)"/>
  <text x="1008" y="1060" class="legend-text">kubelet (node-local)</text>
  <line x1="1200" y1="1056" x2="1232" y2="1056" stroke="#a855f7" stroke-width="1.8" marker-end="url(#arrow-purple)"/>
  <text x="1238" y="1060" class="legend-text">CSI gRPC (csi.sock)</text>
  <line x1="1430" y1="1056" x2="1462" y2="1056" stroke="#f43f5e" stroke-width="1.8" marker-end="url(#arrow-rose)"/>
  <text x="1468" y="1060" class="legend-text">node-driver-registrar</text>
  <text x="40" y="1080" class="lane-sub">dashed = async / status echo / backend hop. Sources: kubernetes v1.36.0 pkg/volume/csi, pkg/kubelet/volumemanager; kubernetes-csi/external-{provisioner,attacher,resizer,snapshotter}; node-driver-registrar.</text>

</svg>
