<svg xmlns="http://www.w3.org/2000/svg" viewBox="0 0 1600 1100" width="1600" height="1100">
  <style>
    text { font-family: 'SF Mono', 'Fira Code', 'Cascadia Code', 'Courier New', 'PingFang TC', 'Microsoft JhengHei', 'Microsoft YaHei', 'SimHei', monospace; fill: #e2e8f0; }
    .title { font-size: 24px; font-weight: 700; fill: #f1f5f9; }
    .section-label { font-size: 14px; font-weight: 700; letter-spacing: 0.02em; }
    .stage-title { font-size: 15px; font-weight: 700; }
    .stage-sub { font-size: 11px; fill: #94a3b8; }
    .mono-val { font-size: 12px; fill: #cbd5e1; }
    .arrow-label { font-size: 11px; fill: #cbd5e1; }
    .tree-node { font-size: 13px; font-weight: 700; }
    .tree-node-sub { font-size: 10px; fill: #94a3b8; }
    .formula { font-size: 12px; fill: #cbd5e1; }
    .legend-text { font-size: 12px; fill: #cbd5e1; }
    .picked-text { fill: #f97316; }
    .straw-label { font-size: 11px; fill: #cbd5e1; }
    .straw-num { font-size: 13px; font-weight: 700; }
    .annotate { font-size: 11px; fill: #94a3b8; font-style: italic; }
  </style>
  <defs>
    <linearGradient id="bg-grad" x1="0%" y1="0%" x2="100%" y2="100%">
      <stop offset="0%" stop-color="#0f0f1a"/>
      <stop offset="100%" stop-color="#1a1a2e"/>
    </linearGradient>
    <marker id="arrow-blue" markerWidth="10" markerHeight="8" refX="9" refY="4" orient="auto">
      <polygon points="0 0, 10 4, 0 8" fill="#3b82f6"/>
    </marker>
    <marker id="arrow-orange" markerWidth="10" markerHeight="8" refX="9" refY="4" orient="auto">
      <polygon points="0 0, 10 4, 0 8" fill="#f97316"/>
    </marker>
    <marker id="arrow-green" markerWidth="10" markerHeight="8" refX="9" refY="4" orient="auto">
      <polygon points="0 0, 10 4, 0 8" fill="#10b981"/>
    </marker>
    <marker id="arrow-cyan" markerWidth="10" markerHeight="8" refX="9" refY="4" orient="auto">
      <polygon points="0 0, 10 4, 0 8" fill="#06b6d4"/>
    </marker>
    <marker id="arrow-yellow" markerWidth="10" markerHeight="8" refX="9" refY="4" orient="auto">
      <polygon points="0 0, 10 4, 0 8" fill="#eab308"/>
    </marker>
    <marker id="arrow-rose" markerWidth="10" markerHeight="8" refX="9" refY="4" orient="auto">
      <polygon points="0 0, 10 4, 0 8" fill="#ef4444"/>
    </marker>
  </defs>
  <rect width="1600" height="1100" fill="url(#bg-grad)"/>
  <text x="800" y="38" text-anchor="middle" class="title">Ceph CRUSH Placement: object name &#8594; PG &#8594; OSD set, with straw2 stable property</text>

  <!-- =================================================================== -->
  <!-- SECTION 1: top pipeline (object -> hash -> PG -> CRUSH -> Acting Set) -->
  <!-- =================================================================== -->
  <rect x="30" y="62" width="1540" height="240" rx="8" ry="8" fill="#0f172a" stroke="#3b82f6" stroke-width="1.5" stroke-dasharray="6,4" opacity="0.95"/>
  <text x="46" y="84" class="section-label" fill="#3b82f6">Section 1 &#8212; placement pipeline (client side, deterministic, no central server)</text>

  <!-- Stage 1: object name -->
  <rect x="60" y="108" width="220" height="106" rx="6" ry="6" fill="#0b1220" stroke="#3b82f6" stroke-width="1.5"/>
  <text x="170" y="132" text-anchor="middle" class="stage-title" fill="#3b82f6">1. object name</text>
  <text x="170" y="152" text-anchor="middle" class="stage-sub">RADOS object id</text>
  <rect x="72" y="162" width="196" height="20" rx="3" fill="#020617" stroke="#1e293b"/>
  <text x="170" y="177" text-anchor="middle" class="mono-val">rbd_data.123abc.000000</text>
  <text x="170" y="200" text-anchor="middle" class="stage-sub">pool = rbd (id 5)</text>

  <!-- arrow 1 -->
  <line x1="280" y1="161" x2="338" y2="161" stroke="#3b82f6" stroke-width="2.0" marker-end="url(#arrow-blue)"/>
  <rect x="280" y="138" width="62" height="16" rx="3" fill="#0f172a"/>
  <text x="311" y="150" text-anchor="middle" class="arrow-label">cheap hash</text>

  <!-- Stage 2: hash -->
  <rect x="340" y="108" width="220" height="106" rx="6" ry="6" fill="#0b1220" stroke="#3b82f6" stroke-width="1.5"/>
  <text x="450" y="132" text-anchor="middle" class="stage-title" fill="#3b82f6">2. hash</text>
  <text x="450" y="152" text-anchor="middle" class="stage-sub">crush_hash_name(name)</text>
  <rect x="352" y="162" width="196" height="20" rx="3" fill="#020617" stroke="#1e293b"/>
  <text x="450" y="177" text-anchor="middle" class="mono-val">0x9f4c2e81 (uint32)</text>
  <text x="450" y="200" text-anchor="middle" class="stage-sub">client-local, O(1)</text>

  <!-- arrow 2 -->
  <line x1="560" y1="161" x2="618" y2="161" stroke="#3b82f6" stroke-width="2.0" marker-end="url(#arrow-blue)"/>
  <rect x="558" y="138" width="64" height="16" rx="3" fill="#0f172a"/>
  <text x="590" y="150" text-anchor="middle" class="arrow-label">% pgp_num</text>

  <!-- Stage 3: PG ID -->
  <rect x="620" y="108" width="220" height="106" rx="6" ry="6" fill="#0b1220" stroke="#06b6d4" stroke-width="1.5"/>
  <text x="730" y="132" text-anchor="middle" class="stage-title" fill="#06b6d4">3. PG id</text>
  <text x="730" y="152" text-anchor="middle" class="stage-sub">pool_id + (hash % pgp_num)</text>
  <rect x="632" y="162" width="196" height="20" rx="3" fill="#020617" stroke="#1e293b"/>
  <text x="730" y="177" text-anchor="middle" class="mono-val">5.3a1  (= 0x9f4c2e81 % 1024)</text>
  <text x="730" y="200" text-anchor="middle" class="stage-sub">~hundreds of PGs share OSDs</text>

  <!-- arrow 3 -->
  <line x1="840" y1="161" x2="898" y2="161" stroke="#06b6d4" stroke-width="2.0" marker-end="url(#arrow-cyan)"/>
  <rect x="838" y="138" width="64" height="16" rx="3" fill="#0f172a"/>
  <text x="870" y="150" text-anchor="middle" class="arrow-label">CRUSH</text>

  <!-- Stage 4: CRUSH -->
  <rect x="900" y="108" width="280" height="106" rx="6" ry="6" fill="#0b1220" stroke="#06b6d4" stroke-width="1.5"/>
  <text x="1040" y="132" text-anchor="middle" class="stage-title" fill="#06b6d4">4. crush_do_rule(map, rule, x=PG)</text>
  <text x="1040" y="152" text-anchor="middle" class="stage-sub">walks CRUSHMap with the rule</text>
  <rect x="912" y="162" width="256" height="20" rx="3" fill="#020617" stroke="#1e293b"/>
  <text x="1040" y="177" text-anchor="middle" class="mono-val">take default &#8594; choose 3 hosts &#8594; emit</text>
  <text x="1040" y="200" text-anchor="middle" class="stage-sub">straw2 draw inside each bucket</text>

  <!-- arrow 4 -->
  <line x1="1180" y1="161" x2="1238" y2="161" stroke="#10b981" stroke-width="2.0" marker-end="url(#arrow-green)"/>
  <rect x="1180" y="138" width="60" height="16" rx="3" fill="#0f172a"/>
  <text x="1210" y="150" text-anchor="middle" class="arrow-label">emit</text>

  <!-- Stage 5: Acting Set -->
  <rect x="1240" y="108" width="320" height="106" rx="6" ry="6" fill="#0b1220" stroke="#10b981" stroke-width="1.5"/>
  <text x="1400" y="132" text-anchor="middle" class="stage-title" fill="#10b981">5. Acting Set [primary, replicas]</text>
  <text x="1400" y="152" text-anchor="middle" class="stage-sub">ordered: first = primary OSD</text>
  <rect x="1252" y="162" width="296" height="20" rx="3" fill="#020617" stroke="#1e293b"/>
  <text x="1400" y="177" text-anchor="middle" class="mono-val">[osd.5, osd.12, osd.31]  (size 3)</text>
  <text x="1400" y="200" text-anchor="middle" class="stage-sub">client writes to primary, primary replicates</text>

  <!-- formula band -->
  <rect x="60" y="232" width="1500" height="56" rx="6" ry="6" fill="#0a0a0a" stroke="#334155" stroke-dasharray="4,3"/>
  <text x="80" y="252" class="formula">pg_id   = pool_id + (crush_hash_name(object_name) % pgp_num)</text>
  <text x="80" y="270" class="formula">osd_set = crush_do_rule(crushmap, rule, x = pg_id, num_replicas)         &#8594;  ordered: [primary, secondary_1, secondary_2, ...]</text>
  <text x="1540" y="282" text-anchor="end" class="annotate">src/crush/mapper.c &#8722; crush_do_rule (line 2016)</text>

  <!-- =================================================================== -->
  <!-- SECTION 2: middle CRUSHMap hierarchy tree                            -->
  <!-- =================================================================== -->
  <rect x="30" y="316" width="1540" height="490" rx="8" ry="8" fill="#0f172a" stroke="#06b6d4" stroke-width="1.5" stroke-dasharray="6,4" opacity="0.95"/>
  <text x="46" y="338" class="section-label" fill="#06b6d4">Section 2 &#8212; CRUSHMap hierarchy: rule "take default &#8594; chooseleaf firstn 0 type host" (selected branches highlighted in orange)</text>

  <!-- Tree levels y-coords:
       root: y=370
       datacenter: y=440
       rack: y=520
       host: y=610
       osd: y=700
  -->

  <!-- ROOT -->
  <rect x="740" y="358" width="120" height="48" rx="6" ry="6" fill="#1c1917" stroke="#f97316" stroke-width="2"/>
  <text x="800" y="378" text-anchor="middle" class="tree-node" fill="#f97316">root=default</text>
  <text x="800" y="395" text-anchor="middle" class="tree-node-sub">step take default</text>

  <!-- DATACENTER (single dc1) -->
  <rect x="740" y="430" width="120" height="44" rx="6" ry="6" fill="#1c1917" stroke="#f97316" stroke-width="1.8"/>
  <text x="800" y="449" text-anchor="middle" class="tree-node" fill="#f97316">dc=dc1</text>
  <text x="800" y="465" text-anchor="middle" class="tree-node-sub">datacenter</text>
  <line x1="800" y1="406" x2="800" y2="430" stroke="#f97316" stroke-width="2.2"/>

  <!-- RACKS: rack1, rack2, rack3 -->
  <!-- rack1 (selected) -->
  <rect x="180" y="500" width="120" height="44" rx="6" ry="6" fill="#1c1917" stroke="#f97316" stroke-width="2"/>
  <text x="240" y="519" text-anchor="middle" class="tree-node" fill="#f97316">rack=rack1</text>
  <text x="240" y="535" text-anchor="middle" class="tree-node-sub">picked</text>

  <!-- rack2 (selected) -->
  <rect x="740" y="500" width="120" height="44" rx="6" ry="6" fill="#1c1917" stroke="#f97316" stroke-width="2"/>
  <text x="800" y="519" text-anchor="middle" class="tree-node" fill="#f97316">rack=rack2</text>
  <text x="800" y="535" text-anchor="middle" class="tree-node-sub">picked</text>

  <!-- rack3 (selected) -->
  <rect x="1300" y="500" width="120" height="44" rx="6" ry="6" fill="#1c1917" stroke="#f97316" stroke-width="2"/>
  <text x="1360" y="519" text-anchor="middle" class="tree-node" fill="#f97316">rack=rack3</text>
  <text x="1360" y="535" text-anchor="middle" class="tree-node-sub">picked</text>

  <!-- dc -> racks edges (all selected since 3 hosts span all 3 racks via chooseleaf) -->
  <line x1="800" y1="474" x2="240" y2="500" stroke="#f97316" stroke-width="2.2"/>
  <line x1="800" y1="474" x2="800" y2="500" stroke="#f97316" stroke-width="2.2"/>
  <line x1="800" y1="474" x2="1360" y2="500" stroke="#f97316" stroke-width="2.2"/>

  <!-- HOSTS under each rack: 3 per rack -->
  <!-- rack1 hosts -->
  <rect x="60" y="586" width="100" height="42" rx="6" ry="6" fill="#0b1220" stroke="#475569" stroke-width="1.5"/>
  <text x="110" y="603" text-anchor="middle" class="tree-node" fill="#94a3b8">host=h-a1</text>
  <text x="110" y="619" text-anchor="middle" class="tree-node-sub">not picked</text>

  <rect x="190" y="586" width="100" height="42" rx="6" ry="6" fill="#1c1917" stroke="#f97316" stroke-width="2"/>
  <text x="240" y="603" text-anchor="middle" class="tree-node" fill="#f97316">host=h-a2</text>
  <text x="240" y="619" text-anchor="middle" class="tree-node-sub">straw2 win</text>

  <rect x="320" y="586" width="100" height="42" rx="6" ry="6" fill="#0b1220" stroke="#475569" stroke-width="1.5"/>
  <text x="370" y="603" text-anchor="middle" class="tree-node" fill="#94a3b8">host=h-a3</text>
  <text x="370" y="619" text-anchor="middle" class="tree-node-sub">not picked</text>

  <line x1="240" y1="544" x2="110" y2="586" stroke="#475569" stroke-width="1.0" stroke-dasharray="3,3"/>
  <line x1="240" y1="544" x2="240" y2="586" stroke="#f97316" stroke-width="2.2"/>
  <line x1="240" y1="544" x2="370" y2="586" stroke="#475569" stroke-width="1.0" stroke-dasharray="3,3"/>

  <!-- rack2 hosts -->
  <rect x="620" y="586" width="100" height="42" rx="6" ry="6" fill="#0b1220" stroke="#475569" stroke-width="1.5"/>
  <text x="670" y="603" text-anchor="middle" class="tree-node" fill="#94a3b8">host=h-b1</text>
  <text x="670" y="619" text-anchor="middle" class="tree-node-sub">not picked</text>

  <rect x="750" y="586" width="100" height="42" rx="6" ry="6" fill="#0b1220" stroke="#475569" stroke-width="1.5"/>
  <text x="800" y="603" text-anchor="middle" class="tree-node" fill="#94a3b8">host=h-b2</text>
  <text x="800" y="619" text-anchor="middle" class="tree-node-sub">not picked</text>

  <rect x="880" y="586" width="100" height="42" rx="6" ry="6" fill="#1c1917" stroke="#f97316" stroke-width="2"/>
  <text x="930" y="603" text-anchor="middle" class="tree-node" fill="#f97316">host=h-b3</text>
  <text x="930" y="619" text-anchor="middle" class="tree-node-sub">straw2 win</text>

  <line x1="800" y1="544" x2="670" y2="586" stroke="#475569" stroke-width="1.0" stroke-dasharray="3,3"/>
  <line x1="800" y1="544" x2="800" y2="586" stroke="#475569" stroke-width="1.0" stroke-dasharray="3,3"/>
  <line x1="800" y1="544" x2="930" y2="586" stroke="#f97316" stroke-width="2.2"/>

  <!-- rack3 hosts -->
  <rect x="1180" y="586" width="100" height="42" rx="6" ry="6" fill="#1c1917" stroke="#f97316" stroke-width="2"/>
  <text x="1230" y="603" text-anchor="middle" class="tree-node" fill="#f97316">host=h-c1</text>
  <text x="1230" y="619" text-anchor="middle" class="tree-node-sub">straw2 win</text>

  <rect x="1310" y="586" width="100" height="42" rx="6" ry="6" fill="#0b1220" stroke="#475569" stroke-width="1.5"/>
  <text x="1360" y="603" text-anchor="middle" class="tree-node" fill="#94a3b8">host=h-c2</text>
  <text x="1360" y="619" text-anchor="middle" class="tree-node-sub">not picked</text>

  <rect x="1440" y="586" width="100" height="42" rx="6" ry="6" fill="#0b1220" stroke="#475569" stroke-width="1.5"/>
  <text x="1490" y="603" text-anchor="middle" class="tree-node" fill="#94a3b8">host=h-c3</text>
  <text x="1490" y="619" text-anchor="middle" class="tree-node-sub">not picked</text>

  <line x1="1360" y1="544" x2="1230" y2="586" stroke="#f97316" stroke-width="2.2"/>
  <line x1="1360" y1="544" x2="1360" y2="586" stroke="#475569" stroke-width="1.0" stroke-dasharray="3,3"/>
  <line x1="1360" y1="544" x2="1490" y2="586" stroke="#475569" stroke-width="1.0" stroke-dasharray="3,3"/>

  <!-- OSDs under selected hosts (only show selected host's OSDs in detail) -->
  <!-- h-a2 -> osd.4 osd.5 osd.6 (osd.5 picked) -->
  <rect x="170" y="678" width="44" height="38" rx="4" ry="4" fill="#0b1220" stroke="#475569"/>
  <text x="192" y="694" text-anchor="middle" class="straw-num" fill="#94a3b8">osd.4</text>
  <text x="192" y="710" text-anchor="middle" class="tree-node-sub">12T</text>

  <rect x="220" y="678" width="44" height="38" rx="4" ry="4" fill="#1c1917" stroke="#f97316" stroke-width="2"/>
  <text x="242" y="694" text-anchor="middle" class="straw-num" fill="#f97316">osd.5</text>
  <text x="242" y="710" text-anchor="middle" class="tree-node-sub">primary</text>

  <rect x="270" y="678" width="44" height="38" rx="4" ry="4" fill="#0b1220" stroke="#475569"/>
  <text x="292" y="694" text-anchor="middle" class="straw-num" fill="#94a3b8">osd.6</text>
  <text x="292" y="710" text-anchor="middle" class="tree-node-sub">12T</text>

  <line x1="240" y1="628" x2="192" y2="678" stroke="#475569" stroke-width="1.0" stroke-dasharray="3,3"/>
  <line x1="240" y1="628" x2="242" y2="678" stroke="#f97316" stroke-width="2.2"/>
  <line x1="240" y1="628" x2="292" y2="678" stroke="#475569" stroke-width="1.0" stroke-dasharray="3,3"/>

  <!-- h-b3 -> osd.11 osd.12 osd.13 (osd.12 picked) -->
  <rect x="860" y="678" width="44" height="38" rx="4" ry="4" fill="#0b1220" stroke="#475569"/>
  <text x="882" y="694" text-anchor="middle" class="straw-num" fill="#94a3b8">osd.11</text>
  <text x="882" y="710" text-anchor="middle" class="tree-node-sub">12T</text>

  <rect x="910" y="678" width="44" height="38" rx="4" ry="4" fill="#1c1917" stroke="#f97316" stroke-width="2"/>
  <text x="932" y="694" text-anchor="middle" class="straw-num" fill="#f97316">osd.12</text>
  <text x="932" y="710" text-anchor="middle" class="tree-node-sub">replica</text>

  <rect x="960" y="678" width="44" height="38" rx="4" ry="4" fill="#0b1220" stroke="#475569"/>
  <text x="982" y="694" text-anchor="middle" class="straw-num" fill="#94a3b8">osd.13</text>
  <text x="982" y="710" text-anchor="middle" class="tree-node-sub">12T</text>

  <line x1="930" y1="628" x2="882" y2="678" stroke="#475569" stroke-width="1.0" stroke-dasharray="3,3"/>
  <line x1="930" y1="628" x2="932" y2="678" stroke="#f97316" stroke-width="2.2"/>
  <line x1="930" y1="628" x2="982" y2="678" stroke="#475569" stroke-width="1.0" stroke-dasharray="3,3"/>

  <!-- h-c1 -> osd.30 osd.31 osd.32 (osd.31 picked) -->
  <rect x="1158" y="678" width="44" height="38" rx="4" ry="4" fill="#0b1220" stroke="#475569"/>
  <text x="1180" y="694" text-anchor="middle" class="straw-num" fill="#94a3b8">osd.30</text>
  <text x="1180" y="710" text-anchor="middle" class="tree-node-sub">12T</text>

  <rect x="1208" y="678" width="44" height="38" rx="4" ry="4" fill="#1c1917" stroke="#f97316" stroke-width="2"/>
  <text x="1230" y="694" text-anchor="middle" class="straw-num" fill="#f97316">osd.31</text>
  <text x="1230" y="710" text-anchor="middle" class="tree-node-sub">replica</text>

  <rect x="1258" y="678" width="44" height="38" rx="4" ry="4" fill="#0b1220" stroke="#475569"/>
  <text x="1280" y="694" text-anchor="middle" class="straw-num" fill="#94a3b8">osd.32</text>
  <text x="1280" y="710" text-anchor="middle" class="tree-node-sub">12T</text>

  <line x1="1230" y1="628" x2="1180" y2="678" stroke="#475569" stroke-width="1.0" stroke-dasharray="3,3"/>
  <line x1="1230" y1="628" x2="1230" y2="678" stroke="#f97316" stroke-width="2.2"/>
  <line x1="1230" y1="628" x2="1280" y2="678" stroke="#475569" stroke-width="1.0" stroke-dasharray="3,3"/>

  <!-- non-picked hosts: just show "..." stub OSDs -->
  <text x="110" y="700" text-anchor="middle" class="tree-node-sub">[osd.0..3]</text>
  <text x="370" y="700" text-anchor="middle" class="tree-node-sub">[osd.7..10]</text>
  <text x="670" y="700" text-anchor="middle" class="tree-node-sub">[osd.14..17]</text>
  <text x="800" y="700" text-anchor="middle" class="tree-node-sub">[osd.18..20]</text>
  <text x="1360" y="700" text-anchor="middle" class="tree-node-sub">[osd.33..36]</text>
  <text x="1490" y="700" text-anchor="middle" class="tree-node-sub">[osd.37..40]</text>

  <!-- Result label at bottom of section 2 -->
  <rect x="450" y="744" width="700" height="44" rx="6" ry="6" fill="#0a0a0a" stroke="#10b981" stroke-width="1.5"/>
  <text x="800" y="763" text-anchor="middle" class="stage-title" fill="#10b981">Acting Set = [osd.5, osd.12, osd.31]</text>
  <text x="800" y="780" text-anchor="middle" class="stage-sub">3 replicas, each in a different rack &#8212; rule type=host already covers host failure domain</text>

  <!-- left side annotation: rule -->
  <rect x="40" y="358" width="240" height="124" rx="6" ry="6" fill="#0a0a0a" stroke="#334155" stroke-dasharray="4,3"/>
  <text x="50" y="378" class="stage-title" fill="#cbd5e1">CRUSH rule</text>
  <text x="50" y="396" class="mono-val">rule replicated_rule {</text>
  <text x="50" y="412" class="mono-val">  step take default</text>
  <text x="50" y="428" class="mono-val">  step chooseleaf firstn 0</text>
  <text x="50" y="444" class="mono-val">       type host</text>
  <text x="50" y="460" class="mono-val">  step emit</text>
  <text x="50" y="476" class="mono-val">}</text>

  <!-- right side annotation: failure domain -->
  <rect x="1320" y="358" width="240" height="124" rx="6" ry="6" fill="#0a0a0a" stroke="#334155" stroke-dasharray="4,3"/>
  <text x="1330" y="378" class="stage-title" fill="#cbd5e1">failure domain</text>
  <text x="1330" y="398" class="mono-val">type host  &#8594;  cross-host</text>
  <text x="1330" y="414" class="mono-val">type rack  &#8594;  cross-rack</text>
  <text x="1330" y="430" class="mono-val">type dc    &#8594;  cross-DC</text>
  <text x="1330" y="450" class="annotate">change one keyword,</text>
  <text x="1330" y="466" class="annotate">whole placement re-spans</text>

  <!-- =================================================================== -->
  <!-- SECTION 3: bottom straw2 illustration                                -->
  <!-- =================================================================== -->
  <rect x="30" y="820" width="1540" height="252" rx="8" ry="8" fill="#0f172a" stroke="#eab308" stroke-width="1.5" stroke-dasharray="6,4" opacity="0.95"/>
  <text x="46" y="842" class="section-label" fill="#eab308">Section 3 &#8212; straw2 bucket draw inside one rack: each child draws ln(rand)/weight; longest straw wins (stable property)</text>

  <!-- Bucket label -->
  <rect x="50" y="860" width="220" height="44" rx="6" ry="6" fill="#1c1917" stroke="#eab308" stroke-width="1.8"/>
  <text x="160" y="879" text-anchor="middle" class="stage-title" fill="#eab308">bucket: rack=rack1</text>
  <text x="160" y="895" text-anchor="middle" class="stage-sub">straw2, weights from osd capacity</text>

  <!-- Formula box -->
  <rect x="50" y="920" width="320" height="118" rx="6" ry="6" fill="#0a0a0a" stroke="#334155" stroke-dasharray="4,3"/>
  <text x="60" y="942" class="stage-title" fill="#cbd5e1">straw2 draw (per bucket)</text>
  <text x="60" y="962" class="mono-val">for each child i in bucket:</text>
  <text x="60" y="978" class="mono-val">  r = hash(x, i, bucket_id)</text>
  <text x="60" y="994" class="mono-val">  draw[i] = ln(r) / weight[i]</text>
  <text x="60" y="1010" class="mono-val">winner = argmax(draw[i])</text>
  <text x="60" y="1028" class="annotate">x = pg_id &#8594; same input, same draws</text>

  <!-- Three hosts as straws -->
  <!-- baseline y=1020, straws grow upward; longer = larger draw value -->
  <!-- h-a1: weight 36, draw 0.42 -->
  <line x1="450" y1="1020" x2="450" y2="970" stroke="#3b82f6" stroke-width="14" opacity="0.7"/>
  <rect x="410" y="1028" width="80" height="22" rx="3" fill="#0f172a" stroke="#3b82f6"/>
  <text x="450" y="1043" text-anchor="middle" class="straw-label">h-a1 w=36</text>
  <rect x="416" y="954" width="68" height="16" rx="3" fill="#0f172a"/>
  <text x="450" y="966" text-anchor="middle" class="straw-label">draw 0.42</text>

  <!-- h-a2: weight 36, draw 0.78 (winner) -->
  <line x1="600" y1="1020" x2="600" y2="930" stroke="#f97316" stroke-width="18" opacity="0.95"/>
  <rect x="560" y="1028" width="80" height="22" rx="3" fill="#1c1917" stroke="#f97316" stroke-width="2"/>
  <text x="600" y="1043" text-anchor="middle" class="straw-label picked-text">h-a2 w=36</text>
  <rect x="556" y="912" width="88" height="18" rx="3" fill="#0f172a" stroke="#f97316"/>
  <text x="600" y="925" text-anchor="middle" class="straw-label picked-text">winner 0.78</text>

  <!-- h-a3: weight 18, draw 0.51 (smaller weight -> tends shorter unless lucky) -->
  <line x1="750" y1="1020" x2="750" y2="980" stroke="#3b82f6" stroke-width="14" opacity="0.7"/>
  <rect x="710" y="1028" width="80" height="22" rx="3" fill="#0f172a" stroke="#3b82f6"/>
  <text x="750" y="1043" text-anchor="middle" class="straw-label">h-a3 w=18</text>
  <rect x="716" y="964" width="68" height="16" rx="3" fill="#0f172a"/>
  <text x="750" y="976" text-anchor="middle" class="straw-label">draw 0.51</text>

  <!-- baseline -->
  <line x1="400" y1="1020" x2="820" y2="1020" stroke="#475569" stroke-width="1.5" stroke-dasharray="3,3"/>
  <text x="395" y="1024" text-anchor="end" class="straw-label">0</text>

  <!-- arrow pointing to h-a2 winner -->
  <path d="M 870,945 L 700,920" fill="none" stroke="#f97316" stroke-width="2.0" marker-end="url(#arrow-orange)"/>
  <rect x="868" y="938" width="158" height="16" rx="3" fill="#0f172a"/>
  <text x="947" y="950" text-anchor="middle" class="arrow-label picked-text">argmax &#8594; pick h-a2</text>

  <!-- Stable-property panel (right) -->
  <rect x="1040" y="860" width="510" height="200" rx="6" ry="6" fill="#0a0a0a" stroke="#10b981" stroke-width="1.5" stroke-dasharray="4,3"/>
  <text x="1056" y="882" class="stage-title" fill="#10b981">stable property: add or remove one host</text>

  <text x="1056" y="908" class="mono-val">add  host=h-a4 (w=36) into rack1</text>
  <text x="1056" y="926" class="annotate">&#8594; only PGs whose draw for h-a4 happens to be the new</text>
  <text x="1056" y="942" class="annotate">   max are remapped. Probability ~ 1/(N+1) per PG.</text>

  <text x="1056" y="970" class="mono-val">remove  host=h-a2</text>
  <text x="1056" y="988" class="annotate">&#8594; only PGs that previously won via h-a2 redraw,</text>
  <text x="1056" y="1004" class="annotate">   spreading evenly over the remaining hosts.</text>

  <text x="1056" y="1032" class="mono-val">contrast: hash(x) % N</text>
  <text x="1056" y="1050" class="annotate">&#8594; N changes &#8594; nearly every mapping reshuffles. Bad.</text>

  <!-- =================================================================== -->
  <!-- LEGEND                                                               -->
  <!-- =================================================================== -->
  <rect x="30" y="1080" width="1540" height="0" fill="none"/>

  <!-- Footer source attribution -->
  <text x="1560" y="1094" text-anchor="end" class="annotate">Source: ceph v19.2.3 src/crush/{mapper.c, CrushWrapper.h, builder.c, hash.c}</text>
  <text x="40" y="1094" class="annotate">orange = path picked for example PG 5.3a1 &#8226; blue / dashed grey = not picked &#8226; straw lengths illustrative, not to scale</text>
</svg>
