<svg xmlns="http://www.w3.org/2000/svg" viewBox="0 0 1700 1100" width="1700" height="1100">
  <style>
    text { font-family: 'SF Mono', 'Fira Code', 'Cascadia Code', 'Courier New', 'PingFang TC', 'Microsoft JhengHei', 'Microsoft YaHei', 'SimHei', monospace; fill: #e2e8f0; }
    .title { font-size: 22px; font-weight: 700; fill: #f1f5f9; }
    .subtitle { font-size: 12px; fill: #94a3b8; }
    .lane-label { font-size: 13px; font-weight: 700; }
    .lane-sub { font-size: 10px; fill: #94a3b8; }
    .step-num { font-size: 11px; font-weight: 700; fill: #f1f5f9; }
    .arrow-label { font-size: 11px; fill: #cbd5e1; }
    .arrow-label-strong { font-size: 11px; font-weight: 700; fill: #f1f5f9; }
    .note { font-size: 10px; fill: #94a3b8; }
    .legend-text { font-size: 12px; fill: #cbd5e1; }
    .phase-label { font-size: 12px; font-weight: 700; letter-spacing: 0.05em; }
  </style>
  <defs>
    <linearGradient id="bg-grad" x1="0%" y1="0%" x2="100%" y2="100%">
      <stop offset="0%" stop-color="#0f0f1a"/>
      <stop offset="100%" stop-color="#1a1a2e"/>
    </linearGradient>
    <marker id="arrow-blue" markerWidth="10" markerHeight="8" refX="9" refY="4" orient="auto">
      <polygon points="0 0, 10 4, 0 8" fill="#3b82f6"/>
    </marker>
    <marker id="arrow-orange" markerWidth="10" markerHeight="8" refX="9" refY="4" orient="auto">
      <polygon points="0 0, 10 4, 0 8" fill="#f97316"/>
    </marker>
    <marker id="arrow-green" markerWidth="10" markerHeight="8" refX="9" refY="4" orient="auto">
      <polygon points="0 0, 10 4, 0 8" fill="#10b981"/>
    </marker>
    <marker id="arrow-cyan" markerWidth="10" markerHeight="8" refX="9" refY="4" orient="auto">
      <polygon points="0 0, 10 4, 0 8" fill="#06b6d4"/>
    </marker>
    <marker id="arrow-yellow" markerWidth="10" markerHeight="8" refX="9" refY="4" orient="auto">
      <polygon points="0 0, 10 4, 0 8" fill="#eab308"/>
    </marker>
    <marker id="arrow-purple" markerWidth="10" markerHeight="8" refX="9" refY="4" orient="auto">
      <polygon points="0 0, 10 4, 0 8" fill="#a855f7"/>
    </marker>
    <marker id="arrow-rose" markerWidth="10" markerHeight="8" refX="9" refY="4" orient="auto">
      <polygon points="0 0, 10 4, 0 8" fill="#f43f5e"/>
    </marker>
  </defs>
  <rect width="1700" height="1100" fill="url(#bg-grad)"/>
  <text x="850" y="36" text-anchor="middle" class="title">Multus Delegate Fan-out: CNI ADD swimlane (kubelet &#8594; multus-shim &#8594; daemon &#8594; N delegates &#8594; Pod netns)</text>
  <text x="850" y="56" text-anchor="middle" class="subtitle">Pod has annotation k8s.v1.cni.cncf.io/networks: [macvlan-conf, sriov-net]; default network = cilium; thick mode</text>

  <!-- ==================== Lane backgrounds ==================== -->
  <!-- Lane Y centers: 110, 180, 260, 340, 410, 490, 570, 650, 740 -->
  <!-- Lane band heights: 60 each -->

  <!-- kubelet lane -->
  <rect x="20" y="80" width="1660" height="60" rx="4" fill="#0b1220" stroke="#3b82f6" stroke-width="1.2" opacity="0.6"/>
  <!-- multus-shim lane -->
  <rect x="20" y="150" width="1660" height="60" rx="4" fill="#0b1220" stroke="#f97316" stroke-width="1.2" opacity="0.6"/>
  <!-- multus-daemon lane -->
  <rect x="20" y="220" width="1660" height="80" rx="4" fill="#1c1917" stroke="#f97316" stroke-width="1.5" opacity="0.7"/>
  <!-- NAD informer cache lane -->
  <rect x="20" y="310" width="1660" height="60" rx="4" fill="#0b1220" stroke="#06b6d4" stroke-width="1.2" opacity="0.6"/>
  <!-- PodResources gRPC lane -->
  <rect x="20" y="380" width="1660" height="60" rx="4" fill="#0b1220" stroke="#f43f5e" stroke-width="1.2" opacity="0.6"/>
  <!-- delegate default (cilium) lane -->
  <rect x="20" y="450" width="1660" height="60" rx="4" fill="#0b1220" stroke="#10b981" stroke-width="1.2" opacity="0.6"/>
  <!-- delegate macvlan lane -->
  <rect x="20" y="520" width="1660" height="60" rx="4" fill="#0b1220" stroke="#10b981" stroke-width="1.2" opacity="0.6"/>
  <!-- delegate sriov lane -->
  <rect x="20" y="590" width="1660" height="60" rx="4" fill="#0b1220" stroke="#10b981" stroke-width="1.2" opacity="0.6"/>
  <!-- Pod netns lane -->
  <rect x="20" y="660" width="1660" height="120" rx="4" fill="#0b1220" stroke="#a855f7" stroke-width="1.5" opacity="0.7"/>

  <!-- ==================== Lane labels (left side) ==================== -->
  <rect x="20" y="80" width="240" height="60" rx="4" fill="#0f172a" stroke="#3b82f6" stroke-width="1.5"/>
  <text x="32" y="104" class="lane-label" fill="#3b82f6">kubelet</text>
  <text x="32" y="120" class="lane-sub">CRI runtime per node</text>
  <text x="32" y="134" class="lane-sub">/etc/cni/net.d/00-multus.conf</text>

  <rect x="20" y="150" width="240" height="60" rx="4" fill="#0f172a" stroke="#f97316" stroke-width="1.5"/>
  <text x="32" y="174" class="lane-label" fill="#f97316">multus-shim</text>
  <text x="32" y="190" class="lane-sub">/opt/cni/bin/multus</text>
  <text x="32" y="204" class="lane-sub">~200 LOC, no clientset</text>

  <rect x="20" y="220" width="240" height="80" rx="4" fill="#1c1917" stroke="#f97316" stroke-width="1.5"/>
  <text x="32" y="244" class="lane-label" fill="#f97316">multus-daemon</text>
  <text x="32" y="260" class="lane-sub">DaemonSet Pod, per-node</text>
  <text x="32" y="274" class="lane-sub">listens on multus.sock</text>
  <text x="32" y="288" class="lane-sub">pkg/server/server.go</text>

  <rect x="20" y="310" width="240" height="60" rx="4" fill="#0f172a" stroke="#06b6d4" stroke-width="1.5"/>
  <text x="32" y="334" class="lane-label" fill="#06b6d4">NAD informer cache</text>
  <text x="32" y="350" class="lane-sub">k8s.cni.cncf.io/v1</text>
  <text x="32" y="364" class="lane-sub">in-memory; no apiserver hit</text>

  <rect x="20" y="380" width="240" height="60" rx="4" fill="#0f172a" stroke="#f43f5e" stroke-width="1.5"/>
  <text x="32" y="404" class="lane-label" fill="#f43f5e">PodResources gRPC</text>
  <text x="32" y="420" class="lane-sub">/var/lib/kubelet/pod-resources/</text>
  <text x="32" y="434" class="lane-sub">kubelet.sock (SR-IOV only)</text>

  <rect x="20" y="450" width="240" height="60" rx="4" fill="#0f172a" stroke="#10b981" stroke-width="1.5"/>
  <text x="32" y="474" class="lane-label" fill="#10b981">delegate: cilium (default)</text>
  <text x="32" y="490" class="lane-sub">/opt/cni/bin/cilium-cni</text>
  <text x="32" y="504" class="lane-sub">MasterPlugin = true</text>

  <rect x="20" y="520" width="240" height="60" rx="4" fill="#0f172a" stroke="#10b981" stroke-width="1.5"/>
  <text x="32" y="544" class="lane-label" fill="#10b981">delegate: macvlan (sec 1)</text>
  <text x="32" y="560" class="lane-sub">/opt/cni/bin/macvlan</text>
  <text x="32" y="574" class="lane-sub">L2 child of host eth1</text>

  <rect x="20" y="590" width="240" height="60" rx="4" fill="#0f172a" stroke="#10b981" stroke-width="1.5"/>
  <text x="32" y="614" class="lane-label" fill="#10b981">delegate: sriov (sec 2)</text>
  <text x="32" y="630" class="lane-sub">/opt/cni/bin/sriov</text>
  <text x="32" y="644" class="lane-sub">DEVICE_ID = PCI VF</text>

  <rect x="20" y="660" width="240" height="120" rx="4" fill="#0f172a" stroke="#a855f7" stroke-width="1.5"/>
  <text x="32" y="684" class="lane-label" fill="#a855f7">Pod netns</text>
  <text x="32" y="700" class="lane-sub">/proc/&lt;sandbox-pid&gt;/ns/net</text>
  <text x="32" y="716" class="lane-sub">eth0 (default)</text>
  <text x="32" y="732" class="lane-sub">net1 (macvlan)</text>
  <text x="32" y="748" class="lane-sub">net2 (SR-IOV VF)</text>
  <text x="32" y="768" class="lane-sub">network-status annotation</text>

  <!-- ==================== Phase header bands ==================== -->
  <!-- Time columns: 280..1680 = 1400 wide, divided across phases -->
  <!-- Phase A: shim handshake     280..480 -->
  <!-- Phase B: parse + cache      480..720 -->
  <!-- Phase C: device discovery   720..880 -->
  <!-- Phase D: delegate fan-out   880..1340 -->
  <!-- Phase E: aggregate + return 1340..1680 -->

  <rect x="280" y="780" width="200" height="22" rx="3" fill="#1e293b" stroke="#3b82f6" stroke-width="1"/>
  <text x="380" y="796" text-anchor="middle" class="phase-label" fill="#60a5fa">A. shim handshake</text>

  <rect x="480" y="780" width="240" height="22" rx="3" fill="#1e293b" stroke="#06b6d4" stroke-width="1"/>
  <text x="600" y="796" text-anchor="middle" class="phase-label" fill="#22d3ee">B. parse + NAD lookup</text>

  <rect x="720" y="780" width="160" height="22" rx="3" fill="#1e293b" stroke="#f43f5e" stroke-width="1"/>
  <text x="800" y="796" text-anchor="middle" class="phase-label" fill="#fb7185">C. device lookup</text>

  <rect x="880" y="780" width="460" height="22" rx="3" fill="#1e293b" stroke="#10b981" stroke-width="1"/>
  <text x="1110" y="796" text-anchor="middle" class="phase-label" fill="#34d399">D. delegate fan-out (chroot exec each plugin)</text>

  <rect x="1340" y="780" width="340" height="22" rx="3" fill="#1e293b" stroke="#a855f7" stroke-width="1"/>
  <text x="1510" y="796" text-anchor="middle" class="phase-label" fill="#c084fc">E. aggregate + PATCH + return</text>

  <!-- Time axis arrow -->
  <line x1="280" y1="74" x2="1680" y2="74" stroke="#475569" stroke-width="1" stroke-dasharray="4,4"/>
  <polygon points="1680,71 1688,74 1680,77" fill="#475569"/>
  <text x="1670" y="68" text-anchor="end" class="note">time &#8594;</text>

  <!-- ==================== Phase A: shim handshake ==================== -->
  <!-- Step 1: kubelet -> shim: CNI ADD exec -->
  <line x1="290" y1="110" x2="290" y2="180" stroke="#3b82f6" stroke-width="2.0" marker-end="url(#arrow-blue)"/>
  <rect x="298" y="118" width="172" height="32" rx="3" fill="#0f172a" stroke="#1e293b" stroke-width="0.5"/>
  <text x="304" y="130" class="step-num">1.</text>
  <text x="316" y="130" class="arrow-label-strong">CNI ADD exec</text>
  <text x="304" y="143" class="arrow-label">CNI_COMMAND=ADD, stdin netconf</text>

  <!-- Step 2: shim -> daemon: POST /cni over multus.sock -->
  <line x1="380" y1="180" x2="380" y2="250" stroke="#f97316" stroke-width="2.0" marker-end="url(#arrow-orange)"/>
  <rect x="388" y="186" width="92" height="32" rx="3" fill="#0f172a" stroke="#1e293b" stroke-width="0.5"/>
  <text x="394" y="198" class="step-num">2.</text>
  <text x="406" y="198" class="arrow-label-strong">POST /cni</text>
  <text x="394" y="211" class="arrow-label">over multus.sock UDS</text>

  <!-- ==================== Phase B: parse + NAD lookup ==================== -->
  <!-- Step 3: daemon parses Pod annotation (in-lane note, no arrow) -->
  <rect x="488" y="226" width="226" height="68" rx="3" fill="#0f172a" stroke="#06b6d4" stroke-width="1.0"/>
  <text x="494" y="240" class="step-num" fill="#22d3ee">3.</text>
  <text x="506" y="240" class="arrow-label-strong" fill="#22d3ee">parse Pod annotation</text>
  <text x="494" y="254" class="arrow-label">k8s.v1.cni.cncf.io/networks</text>
  <text x="494" y="268" class="arrow-label">read Pod from local informer</text>
  <text x="494" y="282" class="arrow-label">(GetK8sArgs sets PodName/NS)</text>

  <!-- Step 4: daemon -> NAD cache: lookup macvlan-conf + sriov-net -->
  <line x1="600" y1="296" x2="600" y2="320" stroke="#06b6d4" stroke-width="2.0" marker-end="url(#arrow-cyan)"/>
  <rect x="608" y="298" width="108" height="22" rx="3" fill="#0f172a" stroke="#1e293b" stroke-width="0.5"/>
  <text x="614" y="313" class="step-num">4.</text>
  <text x="626" y="313" class="arrow-label">GetNetAttachDef &#215;2</text>

  <!-- Step 5: NAD cache -> daemon: return CRD objects (DelegateNetConf list) -->
  <line x1="660" y1="320" x2="660" y2="296" stroke="#06b6d4" stroke-width="2.0" marker-end="url(#arrow-cyan)" stroke-dasharray="5,3"/>
  <rect x="490" y="324" width="220" height="34" rx="3" fill="#0f172a" stroke="#06b6d4" stroke-width="0.6"/>
  <text x="496" y="338" class="step-num" fill="#22d3ee">5.</text>
  <text x="508" y="338" class="arrow-label-strong" fill="#22d3ee">build DelegateNetConf list</text>
  <text x="496" y="352" class="arrow-label">[default cilium, macvlan, sriov]</text>

  <!-- ==================== Phase C: device lookup (SR-IOV) ==================== -->
  <!-- Step 6: daemon -> PodResources: List() -->
  <line x1="760" y1="296" x2="760" y2="390" stroke="#f43f5e" stroke-width="2.0" marker-end="url(#arrow-rose)"/>
  <rect x="768" y="312" width="100" height="22" rx="3" fill="#0f172a" stroke="#1e293b" stroke-width="0.5"/>
  <text x="774" y="327" class="step-num">6.</text>
  <text x="786" y="327" class="arrow-label">List() Pod -&gt; devs</text>

  <!-- Step 7: PodResources -> daemon: deviceID -->
  <line x1="820" y1="390" x2="820" y2="296" stroke="#f43f5e" stroke-width="2.0" marker-end="url(#arrow-rose)" stroke-dasharray="5,3"/>
  <rect x="722" y="354" width="156" height="22" rx="3" fill="#0f172a" stroke="#f43f5e" stroke-width="0.6"/>
  <text x="728" y="369" class="step-num" fill="#fb7185">7.</text>
  <text x="740" y="369" class="arrow-label-strong" fill="#fb7185">deviceID 0000:84:02.1</text>

  <!-- Note: only SR-IOV path -->
  <rect x="722" y="408" width="156" height="22" rx="3" fill="#0a0a0a" stroke="#475569" stroke-width="0.5" stroke-dasharray="3,2"/>
  <text x="800" y="423" text-anchor="middle" class="note">only when NAD has resourceName</text>

  <!-- ==================== Phase D: delegate fan-out ==================== -->
  <!-- Sequential timeline: each delegate at distinct X position; daemon line shows control returning between exec calls -->

  <!-- Step 8: daemon -> cilium (default) chroot+exec ADD -->
  <line x1="920" y1="296" x2="920" y2="460" stroke="#10b981" stroke-width="2.0" marker-end="url(#arrow-green)"/>
  <rect x="900" y="304" width="120" height="34" rx="3" fill="#0f172a" stroke="#1e293b" stroke-width="0.5"/>
  <text x="906" y="317" class="step-num">8.</text>
  <text x="918" y="317" class="arrow-label-strong">chroot exec</text>
  <text x="906" y="331" class="arrow-label">CNI ADD eth0</text>

  <!-- cilium creates eth0 in Pod netns -->
  <line x1="920" y1="480" x2="970" y2="690" stroke="#a855f7" stroke-width="1.6" marker-end="url(#arrow-purple)"/>
  <rect x="930" y="568" width="100" height="22" rx="3" fill="#0f172a" stroke="#1e293b" stroke-width="0.5"/>
  <text x="980" y="583" text-anchor="middle" class="arrow-label">veth + IP via IPAM</text>

  <!-- Step 9: cilium returns CNI Result to daemon -->
  <line x1="940" y1="460" x2="940" y2="296" stroke="#10b981" stroke-width="2.0" marker-end="url(#arrow-green)" stroke-dasharray="5,3"/>
  <rect x="908" y="350" width="80" height="34" rx="3" fill="#0f172a" stroke="#10b981" stroke-width="0.5"/>
  <text x="914" y="363" class="step-num" fill="#34d399">9.</text>
  <text x="926" y="363" class="arrow-label-strong" fill="#34d399">Result</text>
  <text x="914" y="377" class="arrow-label">eth0 IP/MAC</text>

  <!-- Step 10: daemon -> macvlan chroot+exec ADD -->
  <line x1="1080" y1="296" x2="1080" y2="530" stroke="#10b981" stroke-width="2.0" marker-end="url(#arrow-green)"/>
  <rect x="1060" y="304" width="120" height="34" rx="3" fill="#0f172a" stroke="#1e293b" stroke-width="0.5"/>
  <text x="1066" y="317" class="step-num">10.</text>
  <text x="1080" y="317" class="arrow-label-strong">chroot exec</text>
  <text x="1066" y="331" class="arrow-label">CNI ADD net1</text>

  <!-- macvlan creates net1 in Pod netns -->
  <line x1="1080" y1="550" x2="1090" y2="710" stroke="#a855f7" stroke-width="1.6" marker-end="url(#arrow-purple)"/>
  <rect x="1098" y="608" width="120" height="22" rx="3" fill="#0f172a" stroke="#1e293b" stroke-width="0.5"/>
  <text x="1158" y="623" text-anchor="middle" class="arrow-label">macvlan@eth1 net1</text>

  <!-- Step 11: macvlan returns -->
  <line x1="1100" y1="530" x2="1100" y2="296" stroke="#10b981" stroke-width="2.0" marker-end="url(#arrow-green)" stroke-dasharray="5,3"/>
  <rect x="1068" y="392" width="84" height="34" rx="3" fill="#0f172a" stroke="#10b981" stroke-width="0.5"/>
  <text x="1074" y="405" class="step-num" fill="#34d399">11.</text>
  <text x="1090" y="405" class="arrow-label-strong" fill="#34d399">Result</text>
  <text x="1074" y="419" class="arrow-label">net1 IP/MAC</text>

  <!-- Step 12: daemon -> sriov chroot+exec ADD with deviceID -->
  <line x1="1240" y1="296" x2="1240" y2="600" stroke="#10b981" stroke-width="2.0" marker-end="url(#arrow-green)"/>
  <rect x="1220" y="304" width="120" height="34" rx="3" fill="#0f172a" stroke="#1e293b" stroke-width="0.5"/>
  <text x="1226" y="317" class="step-num">12.</text>
  <text x="1240" y="317" class="arrow-label-strong">chroot exec</text>
  <text x="1226" y="331" class="arrow-label">CNI ADD net2 (deviceID)</text>

  <!-- sriov moves VF into Pod netns -->
  <line x1="1240" y1="620" x2="1220" y2="730" stroke="#a855f7" stroke-width="1.6" marker-end="url(#arrow-purple)"/>
  <rect x="1170" y="668" width="138" height="22" rx="3" fill="#0f172a" stroke="#1e293b" stroke-width="0.5"/>
  <text x="1239" y="683" text-anchor="middle" class="arrow-label">VF moved into netns</text>

  <!-- Step 13: sriov returns -->
  <line x1="1260" y1="600" x2="1260" y2="296" stroke="#10b981" stroke-width="2.0" marker-end="url(#arrow-green)" stroke-dasharray="5,3"/>
  <rect x="1228" y="442" width="84" height="34" rx="3" fill="#0f172a" stroke="#10b981" stroke-width="0.5"/>
  <text x="1234" y="455" class="step-num" fill="#34d399">13.</text>
  <text x="1250" y="455" class="arrow-label-strong" fill="#34d399">Result</text>
  <text x="1234" y="469" class="arrow-label">net2 IP/MAC</text>

  <!-- ==================== Phase E: aggregate + PATCH + return ==================== -->

  <!-- Step 14: daemon aggregates network-status -->
  <rect x="1348" y="226" width="220" height="68" rx="3" fill="#0f172a" stroke="#a855f7" stroke-width="1.0"/>
  <text x="1354" y="240" class="step-num" fill="#c084fc">14.</text>
  <text x="1370" y="240" class="arrow-label-strong" fill="#c084fc">aggregate netStatus list</text>
  <text x="1354" y="254" class="arrow-label">[eth0 cilium, net1 macvlan,</text>
  <text x="1354" y="268" class="arrow-label">net2 sriov] &#8594; JSON</text>
  <text x="1354" y="282" class="arrow-label">master = cilium Result</text>

  <!-- Step 15: daemon -> Pod netns lane (PATCH annotation, conceptually delivered to Pod object via apiserver — but for simplicity we draw the write target in Pod netns lane to show the network-status annotation lives on the Pod) -->
  <line x1="1500" y1="296" x2="1500" y2="700" stroke="#a855f7" stroke-width="2.0" marker-end="url(#arrow-purple)"/>
  <rect x="1396" y="328" width="208" height="34" rx="3" fill="#0f172a" stroke="#a855f7" stroke-width="0.6"/>
  <text x="1402" y="342" class="step-num" fill="#c084fc">15.</text>
  <text x="1418" y="342" class="arrow-label-strong" fill="#c084fc">PATCH Pod annotation</text>
  <text x="1402" y="356" class="arrow-label">k8s.v1.cni.cncf.io/network-status</text>

  <!-- Step 16: daemon -> shim HTTP response (master Result only) -->
  <line x1="1620" y1="250" x2="1620" y2="200" stroke="#f97316" stroke-width="2.0" marker-end="url(#arrow-orange)" stroke-dasharray="5,3"/>
  <rect x="1500" y="206" width="178" height="34" rx="3" fill="#0f172a" stroke="#f97316" stroke-width="0.6"/>
  <text x="1506" y="220" class="step-num" fill="#fb923c">16.</text>
  <text x="1522" y="220" class="arrow-label-strong" fill="#fb923c">HTTP response: Result</text>
  <text x="1506" y="234" class="arrow-label">master (cilium) only &#8594; kubelet</text>

  <!-- Step 17: shim -> kubelet stdout CNI Result -->
  <line x1="1620" y1="180" x2="1620" y2="130" stroke="#3b82f6" stroke-width="2.0" marker-end="url(#arrow-blue)" stroke-dasharray="5,3"/>
  <rect x="1500" y="136" width="178" height="34" rx="3" fill="#0f172a" stroke="#3b82f6" stroke-width="0.6"/>
  <text x="1506" y="150" class="step-num" fill="#60a5fa">17.</text>
  <text x="1522" y="150" class="arrow-label-strong" fill="#60a5fa">stdout: CNI Result JSON</text>
  <text x="1506" y="164" class="arrow-label">kubelet sets pod.status.podIP</text>

  <!-- ==================== Critical-path notes ==================== -->
  <rect x="280" y="820" width="1400" height="170" rx="6" fill="#0a0a0a" stroke="#334155" stroke-width="1"/>
  <text x="296" y="840" class="phase-label" fill="#f1f5f9">Why this shape</text>

  <!-- Column 1: ordering -->
  <text x="296" y="862" class="arrow-label-strong">Sequential not parallel</text>
  <text x="296" y="878" class="arrow-label">delegates run one-by-one (loop in</text>
  <text x="296" y="893" class="arrow-label">multus.go:825). On step-12 fail,</text>
  <text x="296" y="908" class="arrow-label">delPlugins reverse-DELs steps 8-10.</text>
  <text x="296" y="923" class="arrow-label">CNI spec: DEL must be idempotent.</text>
  <text x="296" y="943" class="arrow-label">getIfname picks net1, net2... by</text>
  <text x="296" y="958" class="arrow-label">index unless IfnameRequest set.</text>
  <text x="296" y="978" class="arrow-label">First delegate keeps args.IfName eth0.</text>

  <!-- Column 2: thick mode benefit -->
  <text x="600" y="862" class="arrow-label-strong">Why a daemon at all</text>
  <text x="600" y="878" class="arrow-label">Thin mode: shim builds clientset on</text>
  <text x="600" y="893" class="arrow-label">every ADD, hits apiserver (2+N) times</text>
  <text x="600" y="908" class="arrow-label">per Pod. Thick mode: 1 UDS round-trip,</text>
  <text x="600" y="923" class="arrow-label">all reads via informer cache. Trim</text>
  <text x="600" y="943" class="arrow-label">strips Pod.Spec.Volumes/Command/Env</text>
  <text x="600" y="958" class="arrow-label">before cache write. Pod informer is</text>
  <text x="600" y="978" class="arrow-label">node-scoped (fieldSelector spec.nodeName).</text>

  <!-- Column 3: chroot exec -->
  <text x="900" y="862" class="arrow-label-strong">chroot exec gymnastics</text>
  <text x="900" y="878" class="arrow-label">Daemon Pod has its own rootfs but</text>
  <text x="900" y="893" class="arrow-label">CNI binaries live on host /opt/cni/bin.</text>
  <text x="900" y="908" class="arrow-label">DaemonSet mounts host / at /host;</text>
  <text x="900" y="923" class="arrow-label">SysProcAttr.Chroot = /host before exec.</text>
  <text x="900" y="943" class="arrow-label">Path /opt/cni/bin must exist identical</text>
  <text x="900" y="958" class="arrow-label">in host and after-chroot view.</text>
  <text x="900" y="978" class="arrow-label">Retry on ETXTBSY (text file busy).</text>

  <!-- Column 4: master result + network-status -->
  <text x="1200" y="862" class="arrow-label-strong">Master result + status annotation</text>
  <text x="1200" y="878" class="arrow-label">CNI spec returns ONE Result to</text>
  <text x="1200" y="893" class="arrow-label">kubelet &#8594; pod.status.podIP. Multus</text>
  <text x="1200" y="908" class="arrow-label">picks default delegate&apos;s Result as</text>
  <text x="1200" y="923" class="arrow-label">that one (Service/kube-proxy build on it).</text>
  <text x="1200" y="943" class="arrow-label">Secondary Results survive only via</text>
  <text x="1200" y="958" class="arrow-label">k8s.v1.cni.cncf.io/network-status</text>
  <text x="1200" y="978" class="arrow-label">annotation patched onto Pod object.</text>

  <!-- ==================== Legend ==================== -->
  <rect x="20" y="1010" width="1660" height="64" rx="4" fill="#0f172a" stroke="#334155" opacity="0.95"/>
  <text x="36" y="1030" class="phase-label" fill="#f1f5f9">Legend</text>

  <line x1="36" y1="1052" x2="68" y2="1052" stroke="#3b82f6" stroke-width="1.8" marker-end="url(#arrow-blue)"/>
  <text x="74" y="1056" class="legend-text">kubelet &#8596; shim CNI exec/stdout</text>

  <line x1="296" y1="1052" x2="328" y2="1052" stroke="#f97316" stroke-width="1.8" marker-end="url(#arrow-orange)"/>
  <text x="334" y="1056" class="legend-text">shim &#8596; daemon multus.sock UDS</text>

  <line x1="576" y1="1052" x2="608" y2="1052" stroke="#06b6d4" stroke-width="1.8" marker-end="url(#arrow-cyan)"/>
  <text x="614" y="1056" class="legend-text">daemon &#8596; NAD informer cache</text>

  <line x1="876" y1="1052" x2="908" y2="1052" stroke="#f43f5e" stroke-width="1.8" marker-end="url(#arrow-rose)"/>
  <text x="914" y="1056" class="legend-text">daemon &#8596; PodResources gRPC (SR-IOV)</text>

  <line x1="1206" y1="1052" x2="1238" y2="1052" stroke="#10b981" stroke-width="1.8" marker-end="url(#arrow-green)"/>
  <text x="1244" y="1056" class="legend-text">chroot exec each delegate</text>

  <line x1="1466" y1="1052" x2="1498" y2="1052" stroke="#a855f7" stroke-width="1.8" marker-end="url(#arrow-purple)"/>
  <text x="1504" y="1056" class="legend-text">delegate &#8594; Pod netns; PATCH status</text>

  <text x="1680" y="1064" text-anchor="end" class="note">Source: multus-cni v4.2.4 pkg/multus/multus.go (CmdAdd, DelegateAdd, getIfname, delPlugins) + pkg/server/{server.go, exec_chroot.go} + pkg/k8sclient/k8sclient.go</text>
</svg>
